<svg version="1.1" id="Layer_1" xmlns="http://www.w3.org/2000/svg" xmlns:xlink="http://www.w3.org/1999/xlink" x="0px" y="0px"
	 width="27.273px" height="30px" viewBox="0.363 0 27.273 30" enable-background="new 0.363 0 27.273 30" xml:space="preserve">
<g id="Welcome">
	<g id="the-weekend" transform="translate(185.000000, 1350.000000)">
		<g id="section-title" transform="translate(165.000000, 0.000000)">
			<g id="calendar" transform="translate(139.000000, 0.000000)">
				<path id="Path" fill="#FF7DBB" d="M-481.199-1342.314c-0.548,0-0.992-0.426-0.992-0.953v-5.779c0-0.526,0.444-0.953,0.992-0.953
					s0.992,0.427,0.992,0.953v5.779C-480.207-1342.74-480.651-1342.314-481.199-1342.314z"/>
				<path id="Path_1_" fill="#FF7DBB" d="M-468.803-1342.314c-0.547,0-0.991-0.426-0.991-0.953v-5.779
					c0-0.526,0.444-0.953,0.991-0.953c0.549,0,0.992,0.427,0.992,0.953v5.779C-467.811-1342.74-468.254-1342.314-468.803-1342.314z"
					/>
				<path id="Path_2_" fill="#FF7DBB" d="M-488.637-1336.859v12.878c0,2.195,1.806,3.981,4.025,3.981h19.223
					c2.219,0,4.025-1.786,4.025-3.981v-12.878H-488.637z"/>
				<path id="Path_3_" fill="#FF7DBB" d="M-461.363-1338.843v-4.234c0-2.177-1.807-3.948-4.025-3.948h-0.625v3.732
					c0,1.531-1.271,2.777-2.832,2.777c-1.561,0-2.83-1.246-2.83-2.777v-3.732h-6.649v3.732c0,1.531-1.27,2.777-2.831,2.777
					c-1.561,0-2.831-1.246-2.831-2.777v-3.732h-0.625c-2.219,0-4.025,1.771-4.025,3.948v4.234H-461.363L-461.363-1338.843z"/>
			</g>
		</g>
	</g>
</g>
</svg>
