<?xml version="1.0" encoding="utf-8"?>
<!-- Generator: Adobe Illustrator 15.0.0, SVG Export Plug-In . SVG Version: 6.00 Build 0)  -->
<!DOCTYPE svg PUBLIC "-//W3C//DTD SVG 1.1//EN" "http://www.w3.org/Graphics/SVG/1.1/DTD/svg11.dtd">
<svg version="1.1" id="Layer_1" xmlns="http://www.w3.org/2000/svg" xmlns:xlink="http://www.w3.org/1999/xlink" x="0px" y="0px"
	 width="29.203px" height="22.199px" viewBox="0 1 29.203 22.199" enable-background="new 0 1 29.203 22.199" xml:space="preserve">
<title>envelope</title>
<desc>Created with Sketch.</desc>
<g id="section-title" transform="translate(297.000000, 4227.000000)">
	<g id="envelope" transform="translate(200.000000, 34.000000)">
		<path id="Path" fill="#FF7DBB" d="M-496.324-4258.325c4.019,3.199,11.07,8.826,13.143,10.581c0.278,0.236,0.577,0.357,0.886,0.357
			c0.309,0,0.607-0.119,0.885-0.355c2.074-1.756,9.126-7.384,13.145-10.583c0.25-0.199,0.289-0.548,0.086-0.792
			c-0.469-0.562-1.166-0.883-1.914-0.883h-24.401c-0.749,0-1.447,0.322-1.915,0.884
			C-496.612-4258.874-496.574-4258.524-496.324-4258.325z"/>
		<path id="Path_1_" fill="#FF7DBB" d="M-468.15-4256.263c-0.215-0.102-0.469-0.066-0.648,0.089
			c-4.445,3.804-10.117,8.68-11.902,10.305c-1.002,0.912-2.392,0.912-3.396-0.002c-1.902-1.73-8.273-7.198-11.901-10.303
			c-0.181-0.155-0.435-0.189-0.648-0.089c-0.215,0.101-0.353,0.318-0.353,0.557v15.448c0,1.354,1.091,2.457,2.434,2.457h24.336
			c1.342,0,2.434-1.103,2.434-2.457v-15.448C-467.797-4255.945-467.936-4256.163-468.15-4256.263z"/>
	</g>
	<g transform="translate(81.000000, 0.000000)">
	</g>
</g>
</svg>
