<?xml version="1.0" encoding="UTF-8"?>
<svg width="18px" height="30px" viewBox="0 0 18 30" version="1.1" xmlns="http://www.w3.org/2000/svg" xmlns:xlink="http://www.w3.org/1999/xlink">
    <!-- Generator: Sketch 63.1 (92452) - https://sketch.com -->
    <title>Shape</title>
    <desc>Created with Sketch.</desc>
    <g id="Welcome" stroke="none" stroke-width="1" fill="none" fill-rule="evenodd">
        <g id="Wedding-Website" transform="translate(-255.000000, -2022.000000)">
            <g id="accomodations" transform="translate(-273.000000, 1920.000000)">
                <g id="pale-green-circle" opacity="0.5">
                    <path d="M618.360646,144.122736 C619.69886,145.884608 621.042604,147.640938 622.386347,149.40281 C623.083103,152.405748 626.107909,150.79901 627.672846,152.089941 C627.672846,152.522098 627.678375,152.959795 627.683905,153.403034 C628.12076,154.28951 628.557615,155.187067 629,156.079083 C628.4249,157.142855 627.435064,157.375555 626.340161,157.403257 C621.280385,153.702219 621.280385,153.702219 619.67674,156.079083 C618.23899,155.824222 617.531174,153.469519 615.783754,154.428022 C613.925738,155.441929 614.992991,157.015424 615.468555,158.428245 C616.004947,160.051605 614.976402,161.342536 614.395772,162.722114 C612.631763,163.60859 610.862223,164.495066 609.092684,165.381543 C607.76553,166.207074 606.438376,166.207074 605.111221,165.376002 L605.111221,162.722114 C605.570195,161.769152 605.885395,160.710921 606.515793,159.88539 C609.297287,156.245298 608.943379,153.846272 604.442114,151.768593 C602.705754,150.965224 599.946379,149.214434 600.980453,144.228005 C603.280854,149.591186 607.500099,149.153488 610.641031,150.821172 C613.699016,152.455612 612.71471,149.447134 613.074147,148.095257 C615.092528,148.255931 615.225243,151.757512 619.040812,151.042791 C616.137662,149.003896 616.071304,144.660162 611.746993,146.765543 C606.786754,140.576832 601.284593,134.85906 594.637761,130.581813 C590.059079,127.628739 588.355897,124.487289 592.35395,118.409387 C588.26189,119.761263 585.756886,121.866644 582.881385,119.827749 C581.543171,118.880328 580.448269,120.171258 579.674096,121.268273 C579.076876,122.121506 579.26489,123.201899 580.177308,123.462301 C586.647186,125.340523 587.924572,131.94477 591.839677,136.127829 C589.1356,136.60431 587.349472,134.770413 585.297912,133.545967 C582.74314,132.016796 580.332143,132.022337 580.077772,135.534998 C579.873169,138.388344 577.163562,139.984001 577.235449,142.776401 C570.599677,148.106338 568.531529,147.674181 563.626587,140.959124 C560.767675,137.047548 559.158501,131.745313 553.501505,130.465463 C553.319021,130.42668 553.280313,129.778444 553.324551,129.928037 C553.634221,127.163339 556.736444,129.313044 557.206478,127.096853 C552.578027,125.900111 546.268514,129.191153 543.531258,124.459587 C539.737808,117.894123 535.02088,117.456425 528.722427,118.586682 C527.46716,118.813842 523.131789,121.606242 524.154804,116.182116 C524.591659,116.182116 525.028514,116.176575 525.465369,116.176575 C527.550107,114.785916 530.530675,113.583632 527.19067,110.608397 C524.54742,108.253695 526.869941,107.045871 528.136267,105.544402 C530.160177,106.131692 531.802531,108.353423 534.633794,107.189923 C533.234752,104.657926 532.012664,102.441735 530.790576,100.225545 C530.812695,99.1396115 531.033887,98.1534068 532.084551,97.5716568 C533.87068,98.9069115 535.651279,100.242166 537.426348,101.577421 C537.238334,103.804692 538.410654,106.004261 536.524989,108.309099 C535.551742,109.494761 536.751711,112.320404 539.013403,110.929744 C541.839136,109.184494 546.030732,109.583409 547.645436,105.75494 C544.609571,104.353199 540.589399,105.28954 538.753502,101.577421 C542.01056,101.267154 545.20126,100.696485 548.032523,98.8958305 C550.924614,96.829233 553.872002,95.0285783 558.428566,96.6242354 C556.028628,98.1367853 552.550378,96.9788258 552.660974,100.895942 C556.094986,101.184047 559.634064,98.5246187 563.051487,101.250533 C564.013674,102.015119 565.473544,100.951347 565.949107,99.4609591 C567.779474,93.7875117 569.720438,96.0480259 571.550805,99.4332567 C572.242031,100.713107 573.13786,101.472152 574.58667,101.555259 C574.625379,103.283888 575.526738,104.164823 577.235449,104.231309 C578.197636,105.777102 579.762572,105.500078 581.216912,105.544402 C580.321083,109.068144 582.45559,112.985261 584.114533,114.187544 C587.183577,116.414816 584.717282,109.899216 587.9854,110.120835 C588.809341,110.17624 589.671992,109.738542 590.512523,109.533544 C591.917095,112.215135 594.416569,113.068368 597.148295,113.522687 L597.148295,113.517147 C595.870909,117.777773 598.049654,124.326615 601.135288,125.473494 L606.89182,125.473494 C606.947118,133.883937 612.797657,138.914689 618.360646,144.122736" id="Fill-12" fill="#DEEAEA"></path>
                    <path d="M495.835504,189.026507 C496.775321,188.910209 497.309182,188.48932 496.947714,187.808146 C496.725272,187.387257 496.024579,187.049439 495.501841,186.988521 C494.906809,186.922065 494.150506,187.232193 494.617634,188.062894 C494.879003,188.522548 495.501841,188.777297 495.835504,189.026507 M466.623316,162.272407 C466.534339,161.358636 466.245165,160.550087 465.183004,160.461479 C464.293237,160.383947 463.231076,160.539011 463.420152,161.690916 C463.525812,162.383167 464.237626,163.23602 464.899391,163.529534 C465.778037,163.911656 466.534339,163.380008 466.623316,162.272407 M566.711067,146.33403 C566.644334,145.409183 566.338477,144.606172 565.281878,144.517564 C564.39211,144.434494 563.335511,144.600634 563.519025,145.747001 C563.630246,146.44479 564.336499,147.292105 564.998264,147.580081 C565.87691,147.962203 566.627651,147.430555 566.711067,146.33403 M483.862566,160.871292 C485.970204,163.147412 487.388271,164.531913 490.780511,163.2914 C488.589458,161.834904 487.310416,160.511321 483.862566,160.871292 M482.349961,159.730463 C478.479471,158.971756 476.154953,157.891845 473.880484,160.627619 C476.566471,161.718606 478.707474,161.989969 482.349961,159.730463 M496.158045,165.561982 C492.04843,165.888724 489.673862,167.057243 487.282611,169.505041 C492.204139,172.058061 493.472058,168.696492 496.158045,165.561982 M449.634313,164.055644 C452.620596,165.290619 454.422376,168.181458 457.653345,165.728122 C458.381842,165.174321 458.771116,164.227322 457.99813,163.452002 C455.428925,160.843602 452.932015,162.133957 449.634313,164.055644 M507.547072,156.175064 C505.73417,156.396584 501.974901,155.914778 502.408663,158.357038 C503.098233,162.233641 507.85293,159.143434 510.355401,161.065122 C511.395318,161.862594 513.297196,161.31987 513.236025,159.575399 C513.119243,156.10307 510.322035,156.285824 507.547072,156.175064 M481.454632,175.004279 C480.153347,171.443342 476.588715,173.824684 474.636787,171.902997 C473.624676,170.911694 470.271364,171.565178 469.915457,173.830222 C469.29818,177.668059 473.207597,177.153025 475.315235,178.316006 C479.241335,180.475828 477.706486,173.597626 481.454632,175.004279 M485.986887,172.833381 C487.366027,179.196549 491.636912,181.550201 496.880981,182.895936 C498.054362,183.194988 498.949691,186.080288 500.345514,183.488502 C501.452163,181.422827 500.940546,179.888799 498.071045,179.390379 C495.952286,179.019333 493.983675,177.767744 492.070674,176.959195 C493.611084,173.91883 496.647417,176.588149 498.560418,174.732917 C494.534218,169.981309 490.013086,174.982127 485.986887,172.833381 M466.85688,157.537413 C469.370474,156.773168 476.19388,158.201973 472.490222,153.638658 C468.853296,149.169488 473.090815,149.463002 474.097365,147.856981 C468.486267,144.783388 467.190543,148.853822 465.505545,152.226467 C461.918669,152.431373 458.543113,149.612528 454.878382,151.38469 C457.569929,156.064304 461.434858,158.340424 466.85688,157.537413 M525.575991,115 C524.547197,120.421706 528.907059,117.630552 530.169417,117.403494 C536.503452,116.273741 541.247026,116.711243 545.061905,123.273779 C547.814624,128.003235 554.159781,124.719198 558.814378,125.915407 C558.341689,128.125071 555.221941,125.976325 554.910522,128.739789 C554.866034,128.590263 554.904961,129.23821 555.082915,129.276976 C560.777428,130.556255 562.395693,135.856125 565.265194,139.765956 C570.203405,146.478018 572.283238,146.909982 578.928691,141.543656 C581.431162,145.531019 579.106644,147.336409 575.786698,148.809518 C573.606767,149.778669 571.109856,150.432153 570.025452,152.879951 C569.374809,154.35306 567.500736,155.920316 569.419298,157.565103 C570.998635,158.910838 572.149772,157.260513 573.428814,156.507344 C577.104667,154.347522 580.647055,151.611748 584.639887,150.415539 C587.342557,149.601452 588.143348,150.404463 586.864307,146.9709 C585.913368,144.395728 589.561415,144.068986 588.321302,141.80948 C585.462923,141.604574 582.47664,144.351424 578.928691,141.543656 C578.884202,138.796806 581.609116,137.20186 581.814875,134.34425 C582.070683,130.833155 584.489739,130.827617 587.064505,132.361644 C589.122092,133.580005 590.923872,135.413085 593.643225,134.936816 C600.588975,140.618809 595.417199,147.812677 596.078964,154.281066 C598.042014,154.46382 598.481337,152.636279 599.604669,151.700356 C600.711318,150.775509 602.340705,150.493071 603.230473,151.517602 C604.153607,152.575361 604.676345,154.21461 604.804249,155.654491 C604.91547,156.883928 604.186973,158.689318 602.629879,158.345962 C600.227506,157.808775 598.175479,158.052447 598.803878,160.683 C599.104175,161.956741 601.906943,162.970195 603.914482,161.314332 C604.96552,160.439327 605.983192,161.164806 606.98418,161.519238 L606.98418,164.17748 C604.364926,163.806434 605.699578,168.906936 603.380621,167.439365 C597.391372,163.640294 595.522859,168.596808 592.71453,171.720243 C591.730224,172.816767 588.73838,173.414872 590.85714,175.574694 C592.18623,176.937043 594.232696,175.962354 595.750862,174.976589 C596.445993,174.522473 597.174491,173.857912 597.485909,173.121358 C599.193151,169.100766 600.56673,172.933066 601.851333,173.398258 C605.010008,174.533549 602.412998,175.452858 601.539914,176.366628 C600.132969,177.8342 599.799306,179.268543 601.884699,181.168078 C603.653112,178.133252 605.677334,175.41963 609.659045,176.13957 C610.103929,176.13957 610.543251,176.13957 610.988135,176.13957 C609.709094,180.769342 607.184378,183.804169 601.923626,184.191829 C596.568336,184.590565 595.267051,189.751985 594.816606,193.202162 C594.449577,195.993317 592.736774,202.373098 599.993942,202.206958 C601.912504,202.168192 602.307339,203.624687 601.856894,205.524222 C601.556597,206.825653 601.139518,209.046393 603.708723,208.642119 C605.110107,208.426137 605.810799,206.892109 605.39372,205.490994 C603.703162,199.875458 606.45032,197.948232 611.566484,197.804244 C613.857636,197.737788 612.706499,195.877018 613.02904,194.81926 C613.774221,192.443456 611.91683,193.866723 611.355164,193.490138 C608.068585,191.274937 602.957981,192.183169 600.472193,187.54786 C607.501358,187.65862 613.996662,188.948975 620.336258,186.778077 C619.28522,190.427622 622.538433,192.853268 623,196.076387 C618.901507,198.297126 614.964285,200.922141 610.648911,202.605694 C607.106523,203.984657 606.917448,205.817737 609.408797,207.606512 C612.895575,210.115228 612.534107,212.291664 610.254077,215.199116 C609.342065,216.373173 609.464408,217.840744 610.465397,219.313854 C612.628645,217.873972 612.422886,213.055909 616.326742,216.018741 C616.05425,218.992649 619.02385,219.540912 620.336258,221.329687 C618.640138,223.428591 619.485417,225.832085 619.735665,228.052825 C619.930301,229.852676 619.34083,230.694453 617.739248,230.511699 C616.843919,230.412015 614.969846,232.134334 615.103311,228.733999 C615.236776,225.549647 612.406203,224.547268 609.68685,227.294118 C608.563518,228.423871 607.345648,229.321028 605.649529,229.304414 C603.00247,228.728461 600.944882,230.965815 598.219968,230.943663 C598.486898,228.972134 598.731584,227.144592 598.981832,225.322589 C599.098614,224.685718 599.137541,224.021158 599.365544,223.428591 C600.043992,221.623202 603.180423,219.85104 600.51112,217.984733 C597.852939,216.118425 595.589592,218.256095 594.154841,220.565443 C593.270635,221.983172 592.903605,223.727643 592.308573,225.317051 C590.673625,227.305194 587.448217,224.746636 585.60751,228.141433 C588.382473,227.908837 589.494683,230.938125 592.586626,229.991126 C595.584031,229.082894 594.672019,231.81313 594.972316,233.291777 C591.174119,235.518055 588.565988,240.413651 582.960451,238.608262 C582.521128,236.8361 582.076244,235.063939 581.63136,233.291777 C583.255186,233.679437 584.044855,236.016475 586.08576,235.241155 C586.45835,235.102705 586.797574,234.100326 586.675231,233.618519 C586.163615,231.613762 584.400762,232.101106 582.960451,231.962656 C582.21527,230.201571 580.88618,229.309952 578.956496,229.304414 C581.942779,223.384287 580.563639,217.890586 577.432769,212.241822 C578.522734,211.638179 579.951924,211.001309 581.175354,210.093076 C581.775947,209.644498 582.348735,208.664271 582.309808,207.960944 C582.248637,206.925337 581.175354,206.770273 580.263342,206.930875 C573.77916,208.066166 575.097128,203.685605 575.041518,200.047136 C577.432769,199.95299 576.648661,203.414243 579.012106,203.015506 C578.839714,192.664976 578.222437,192.044719 571.260005,194.797108 C568.74085,195.793948 566.266183,196.691105 569.202417,199.692704 C570.7039,201.221193 569.730716,202.134964 568.696361,202.854904 C564.397671,205.856503 562.034225,208.254459 557.529776,201.902367 C555.811412,199.487797 555.299795,200.888913 554.938327,202.72753 C551.635065,202.317718 547.041638,196.419743 545.790403,204.8652 C545.768158,205.014726 544.939562,205.241784 544.600338,205.125486 C538.599967,203.05981 541.530639,207.218852 541.591811,209.367597 C541.085756,210.635801 540.195988,211.527419 538.916947,212.02584 C538.03274,210.696719 537.142972,209.367597 536.253204,208.044014 C532.638523,206.150017 527.305477,204.854124 534.112201,200.024984 C536.509013,198.319278 536.1253,196.713257 532.855404,196.458509 C529.60219,196.209299 528.556713,195.273376 532.004563,193.218776 C533.517168,192.316081 533.122334,191.269399 531.793243,190.992498 C525.681651,189.724295 528.945987,185.083448 528.445492,181.821563 C522.489609,183.54942 522.489609,183.54942 521.572036,180.126933 C523.284839,178.432304 527.444504,181.600043 527.522358,177.922808 C527.600213,174.755069 524.24134,174.638771 521.572036,174.815987 L520.237385,174.815987 C520.548803,174.035128 520.68783,173.082592 521.227251,172.528791 C522.350583,171.371348 523.735284,169.970233 521.944627,168.890322 C520.304117,167.904557 519.458838,169.881625 518.747024,171.188594 C518.335506,171.947301 517.962916,172.722621 517.56252,173.481328 C518.101942,175.524852 511.484294,175.879284 516.300162,179.074713 C517.490227,179.872185 516.111087,181.179154 515.310296,181.561277 C511.117265,183.566034 513.347246,185.820002 514.904339,188.090584 C512.741091,187.808146 510.360963,186.844533 508.475767,187.431561 C506.434862,188.07397 507.424729,183.593724 505.41719,186.030446 C504.076978,187.653082 505.622949,189.408629 505.672999,191.119873 C505.711926,192.415766 506.612816,193.307384 507.869613,192.803426 C513.441783,190.566072 518.735902,194.475903 524.224656,193.407068 C523.568453,197.073227 517.545837,194.708499 517.746035,198.634945 C518.096381,205.562988 514.64297,205.790047 509.560172,204.051113 C506.0011,204.937194 502.442029,205.823275 498.882958,206.703817 C498.832909,205.247322 499.116522,203.680067 497.548307,202.72753 C496.34712,202.373098 495.835504,199.665014 493.933625,201.686385 C490.302261,205.540836 487.872082,203.009968 485.52532,200.096978 C487.421637,200.047136 489.423615,200.152358 489.512592,197.433198 C489.562641,193.323998 488.194623,191.335855 483.623441,192.886496 C481.348972,193.656279 478.390495,194.702961 477.511849,190.759902 C476.171636,188.577928 474.714642,186.866685 472.184365,189.425243 C464.15421,188.633308 470.009995,183.54942 469.537305,180.104781 C465.905941,180.730576 463.525812,177.584989 460.155817,177.490843 C457.04719,177.928346 453.944125,178.36031 450.829938,178.797812 L450.829938,173.486866 C453.577096,173.58655 457.09724,177.956036 458.682139,174.05728 C459.861081,171.14429 454.71155,170.690174 452.765183,169.03431 C448.633324,165.495525 442.983299,164.221784 439.240713,159.636317 C442.627392,160.001825 446.11973,161.275566 446.75369,156.557186 C447.459943,151.296082 443.15013,152.603051 440.541999,152.292923 C437.083026,151.877572 437.850451,150.227247 438.818073,148.239103 C441.420644,147.801601 445.174352,149.612528 446.164219,145.913141 C447.059547,142.612491 443.15013,144.019144 441.826601,142.767555 C441.342789,142.318976 441.570792,141.122767 441.476255,140.269915 C441.481816,139.378296 441.481816,138.486677 441.487377,137.589521 C442.065726,136.526224 443.066715,136.299165 444.162241,136.277013 C447.665702,138.558671 450.507397,136.216095 453.504803,134.936816 C460.517285,137.655977 465.26642,129.21052 472.223292,131.187587 C472.306708,132.561012 468.102555,134.693144 472.840568,135.302325 C475.565482,135.651219 476.66657,137.030182 475.693386,139.738266 C477.205991,140.192383 476.24393,143.127525 478.518399,142.673409 C480.626036,142.25252 480.036565,140.358523 480.192274,138.92418 C482.244301,139.36722 486.893338,137.722433 482.511232,142.745403 C480.854039,144.650476 482.8727,148.200337 486.242695,147.602233 C488.556091,147.19242 490.435726,147.491473 492.521119,148.039735 C493.516547,148.305559 494.884565,148.493852 495.39062,147.286567 C496.063507,145.663931 493.90582,145.425797 493.544352,144.240664 C494.43412,142.911543 495.323887,141.58796 496.213655,140.258839 C496.630734,146.018363 502.364175,146.699538 505.634071,149.684522 C506.390374,150.376773 511.284097,151.644976 508.959578,146.682924 C507.880735,144.373576 509.565733,143.504109 511.412001,142.966923 C513.091437,142.474041 516.044354,141.709796 515.927572,143.598255 C515.727374,147.031818 519.697963,149.507306 517.40125,153.317453 C522.712051,147.707455 525.965265,156.512882 530.686595,154.480434 C531.036941,152.730425 529.885804,151.307158 528.717984,150.027879 C527.79485,149.014424 526.621468,148.106191 527.438942,146.682924 C527.767044,146.106972 528.901498,145.752539 529.702289,145.708235 C531.409531,145.614089 531.170406,147.275491 531.832171,148.139419 C535.11875,152.447987 535.068701,156.40766 531.759877,160.926672 C536.447841,155.167147 547.859113,156.690098 547.002711,145.702697 C546.958223,145.099055 547.214031,144.373576 547.558816,143.858542 C553.470211,134.864822 552.129998,130.822079 540.95229,127.499276 C543.426957,129.996916 543.582666,132.322878 543.349102,134.659916 C543.115538,136.941574 541.224782,137.694743 539.606517,136.985878 C537.276437,135.955809 539.272854,135.440775 540.168182,134.543618 C541.452785,133.258801 540.184866,132.090282 539.111583,131.431259 C537.910397,130.694705 536.080812,130.650401 535.519146,131.913066 C532.271494,139.195542 530.464153,134.405168 528.2731,131.226353 C526.615907,128.828397 525.103302,125.765881 521.516426,129.315742 C520.888027,129.935998 518.363311,130.146442 518.591314,128.180451 C519.064003,124.087865 514.904339,124.996098 513.564126,122.991341 C514.765313,122.775358 516.956366,123.384539 516.856267,121.80067 C516.44475,115.05538 522.083653,116.484185 525.575991,115" id="Fill-1188" fill="#DFEBEB"></path>
                    <path d="M529.827468,96.7680506 C527.618777,93.0552621 526.771835,90.7755768 523.932089,90.8198425 C523.483708,90.830909 522.603553,92.1865471 522.703193,92.7896677 C523.234607,95.987867 526.052211,95.2242831 529.827468,96.7680506 L529.827468,96.7680506 Z M465.310429,60.5586798 C468.000715,60.4424822 467.984108,58.5058563 467.961966,56.5747637 L471.95311,57.9082689 C471.582227,59.1145102 469.257288,59.4077707 470.05441,60.9294053 C470.823854,62.3901745 472.346135,61.8091868 473.397893,60.9349385 C475.623191,59.0979105 477.754384,57.1557514 479.918791,55.2523249 C481.335897,55.3021238 482.094269,56.4253668 483.146027,57.0727532 C484.275283,57.7699385 484.59081,60.5974123 487.009853,58.7327182 C489.146582,57.0838196 491.399558,55.7115819 489.22408,52.6074472 C489.666926,52.601914 490.104236,52.5963808 490.541545,52.5908476 C495.789263,48.9555241 500.378249,52.4912497 505.160979,53.9243528 C505.836319,54.9479979 502.459622,58.6884525 507.303244,56.9676221 C510.945647,55.6728493 514.228239,56.8292917 517.117805,59.236241 C516.647282,65.8484351 509.379082,65.4002445 506.412018,69.445026 C506.251486,69.6663547 505.127766,69.4339595 504.668314,69.1019665 C503.843514,68.5043791 504.076008,67.6467305 504.408142,66.766949 C504.889736,65.5053756 507.928763,66.3353581 506.672189,63.447019 C504.474569,63.4580854 501.922672,63.8343441 501.656965,66.2523599 C501.418936,68.4435137 502.116417,71.3484526 503.527987,72.9364858 C505.127766,74.7458477 508.653922,74.6960487 510.137455,72.9530854 C512.667209,69.9872812 516.243185,71.0939246 518.966685,69.5390907 C523.289963,67.071276 515.938729,63.7513459 519.50917,61.1562672 C519.658631,61.0456029 519.691844,60.7634088 519.780413,60.564213 C522.808369,62.7111011 526.904689,64.2216693 528.648392,67.1432078 C532.33508,73.2795452 537.389053,74.5134526 543.694065,73.8328669 C544.579756,73.8328669 545.465446,73.8384001 546.345602,73.8384001 C548.122519,76.1623512 544.579756,77.1583302 545.022601,79.1502883 C543.478178,78.6633652 542.016788,76.9757341 539.952021,79.1392218 C541.983574,80.6663897 545.415626,82.3097551 540.843248,84.8163023 C539.952021,85.3087586 540.206657,86.5592656 541.169846,86.8580593 C545.105635,88.0919666 547.098439,93.1105943 552.174554,92.6236712 C551.975274,89.7408653 551.864562,87.1457866 549.002674,85.7901484 C550.325675,83.3057341 551.648675,80.826853 553.237383,77.8444491 C554.211643,80.5169928 554.931267,82.4923512 555.650891,84.4621764 C553.198634,87.7157079 556.730326,88.5678233 558.108683,89.98986 C560.190056,92.1367481 560.893073,89.0215471 562.293572,88.4460925 C563.622108,89.3314072 564.95618,90.2111887 566.284716,91.1020366 C565.714552,91.3288985 565.144389,91.5557604 564.574226,91.7826223 C564.878682,92.2695453 565.077962,93.0220628 565.504201,93.1935925 C567.463792,93.9627097 568.166809,92.4355418 568.930717,91.113103 C576.293022,87.6991082 579.791501,92.6292044 584.779047,96.9727796 C590.159619,101.653881 588.139136,102.594528 583.550151,104.381757 L583.544615,104.381757 C582.083226,104.337491 580.522196,104.614152 579.559007,103.070385 C580.643978,100.231844 578.302433,100.785166 576.90747,100.397841 C575.457151,100.320376 574.560389,99.5567919 573.868443,98.2786188 C572.036171,94.8978233 570.087651,92.6402709 568.260913,98.3062849 C567.779319,99.7947202 566.323465,100.857098 565.360276,100.099047 C561.939295,97.3711712 558.396532,100.032649 554.958945,99.7449212 C554.848233,95.8274037 558.32457,96.9838461 560.732542,95.4788111 C556.171234,93.8852446 553.220777,95.6835401 550.325675,97.74743 C547.175937,92.5628058 541.767687,92.2086799 536.636216,91.699624 C532.490076,91.2846327 533.231842,93.9184439 534.361098,96.4194579 C533.30934,97.0004457 533.087917,97.9908915 533.065775,99.075402 C527.596634,98.5497464 527.236823,100.58597 530.403167,104.381757 C529.141058,105.881259 526.816119,107.0875 529.462121,109.439117 C532.805604,112.410455 529.821933,113.611163 527.735024,115 C527.524672,112.371722 526.124174,110.412963 523.522457,111.420009 C520.677175,112.532185 518.374379,110.556827 515.794805,111.010551 C517.123341,108.36014 520.527715,106.738907 519.780413,103.048252 C523.057469,98.0683566 515.739449,99.457194 515.794805,96.4194579 C514.931256,93.8797114 512.611853,93.2655244 510.475124,92.413409 C511.969727,89.3148076 518.302417,88.4626922 514.848222,83.0622726 C513.276121,80.5999911 501.806425,78.8404281 500.904128,81.2750435 C499.260064,85.7292831 497.128871,84.4179107 494.206091,83.4163984 C493.226296,83.073339 491.781513,84.0748512 490.547081,84.4621764 C489.22408,84.0195191 487.90108,83.5768617 486.572544,83.1342044 C484.740271,77.7780505 479.780402,83.4274649 477.267255,80.4837935 C476.010681,83.7705243 473.436642,83.7483914 470.630109,83.1176047 C469.799774,81.5295715 468.044999,79.1447551 467.054132,79.8032079 C462.19944,82.995874 457.018149,83.5713285 451.532401,81.9611624 C451.477045,85.5411537 455.95532,83.2448687 454.98106,86.3711362 C454.814993,86.8801922 453.043611,86.8857254 452.013996,87.1236537 C446.517177,88.9053495 441.435526,85.7292831 436.077097,85.7956817 C437.018143,84.1523163 437.953654,82.5089509 438.933449,80.7936537 C435.340866,80.063269 431.809174,79.4933477 429.135495,77.0697988 C427.86785,75.9299561 424.009559,77.6341869 425.238455,74.4691868 C426.279142,71.7966431 428.094808,73.8937323 430.01565,74.9229106 C435.77264,78.0159788 438.042223,76.7931379 438.739705,71.1824561 C441.8673,72.3056991 445.841838,71.6417131 447.557864,75.7639596 C447.906604,76.6050085 450.043333,76.6658739 450.071011,75.2715033 C450.131903,71.9737061 451.775966,73.4621414 453.447708,73.5838722 C457.090111,73.8439333 460.765728,73.6779368 464.430273,73.6890033 C464.064926,69.5888896 461.22518,66.8610137 458.961133,63.8066781 C458.833815,63.6351483 458.761852,63.4193529 458.667748,63.2201571 C458.712032,61.4937934 459.597723,60.6084787 461.32482,60.5586798 L465.310429,60.5586798 Z" id="Fill-1190" fill="#DFEBE9"></path>
                    <path d="M537.40871,102.012797 C537.910497,101.995734 538.412285,101.995734 538.914072,102.012797 C540.990218,105.823423 545.556484,104.862235 549,106.301173 C547.168476,110.231236 542.41404,109.821736 539.208872,111.613298 C536.643484,113.040861 535.282385,110.145923 536.386318,108.923111 C538.525187,106.55711 537.19545,104.299172 537.40871,102.012797" id="Fill-1204" fill="#DAE8E6"></path>
                    <path d="M529.358576,106.391505 C525.641829,103.3001 526.057689,101.641737 532.477525,102.065341 C533.913541,103.867909 535.356054,105.670478 537,107.729913 C533.666624,108.676261 531.736774,106.869186 529.358576,106.391505" id="Fill-1210" fill="#DAE8E6"></path>
                    <path d="M544.358048,74.2955036 C547.179066,71.9959847 550.640471,74.1335656 553.627107,73 C551.76667,79.1374483 556.674468,78.6624303 560.257326,79.4829159 C564.955342,85.1723358 570.807159,88.1681879 578.381399,86.2195345 C583.901981,84.7944806 583.421691,90.3921357 585.21588,92.3947683 C589.842128,97.5228034 593.883195,103.061081 600,106.688491 C597.112735,108.475207 593.877674,107.886832 590.730942,107.973199 C588.986438,103.617068 583.394088,108.027178 581.461884,104.092086 C586.038447,102.343156 588.053459,101.425508 582.681933,96.8588578 C577.713408,92.6268794 574.21888,87.8173223 566.882025,91.1424482 C565.998732,91.1370502 565.120959,91.1370502 564.243187,91.1316523 C562.912726,90.2679833 561.587787,89.4043142 560.262847,88.5460431 C559.086963,85.5663848 558.10982,82.2520548 553.638148,84.6595323 C552.920472,82.7324707 552.202796,80.8108071 551.231174,78.1982082 C549.646767,81.1130912 548.327347,83.5313646 547.002408,85.9550359 L547.007928,85.9550359 C546.124635,85.0913668 545.246862,84.2222998 544.363569,83.3586308 L543.038629,79.4775179 C542.596983,77.5342626 546.124635,76.5626349 544.358048,74.2955036" id="Fill-1480" fill="#E8F1F1"></path>
                    <path d="M510.535539,125 C510.971355,125.005543 511.407171,125.016628 511.848503,125.033256 C513.178017,127.045216 517.304476,126.136231 516.83556,130.226663 C516.609377,132.194282 519.113939,131.983664 519.737321,131.362894 C523.295564,127.810093 524.796095,130.875146 526.440058,133.28063 C528.608104,136.456534 530.406534,141.250875 533.628261,133.962369 C534.185443,132.698658 536.000423,132.742999 537.19202,133.480163 C538.251218,134.139732 539.514532,135.309218 538.234668,136.595099 C537.346487,137.492999 535.371524,138.00846 537.683003,139.039382 C539.28835,139.748833 541.164013,138.995041 541.395712,136.711494 C541.627412,134.37252 541.467429,132.044632 539.018033,129.544924 C550.106512,132.870478 551.436026,136.916569 545.571821,145.917736 C545.229788,146.43874 544.976022,147.164819 545.020155,147.763419 C545.86972,158.759918 534.549542,157.235706 529.899001,163 C533.175895,158.477246 533.231061,154.514294 529.965201,150.202159 C529.308719,149.343057 529.551452,147.674737 527.857839,147.768961 C527.06344,147.813302 525.938042,148.168028 525.607043,148.75 C524.801611,150.174446 525.965626,151.077888 526.881391,152.092182 C528.039888,153.378063 529.181836,154.796966 528.82877,156.548425 C524.150646,158.582555 520.923402,149.769837 515.654996,155.384481 C517.933375,151.571179 513.994482,149.099183 514.193082,145.662777 C514.308932,143.767211 511.374071,144.532089 509.713557,145.025379 C507.882028,145.563011 506.210481,146.433197 507.280712,148.744457 C509.586674,153.710618 504.732017,152.441365 503.981752,151.748541 C500.737958,148.766628 495.04477,148.084889 494.636537,142.315053 C496.556333,142.03238 498.11203,144.260502 499.921493,143.290548 C501.184808,134.893524 494.106938,133.6021 489.329514,130.343057 C489.307447,129.240082 489.075748,128.247958 488,127.677071 C488,126.790257 488.005517,125.914527 488.005517,125.027713 C492.402291,128.857643 498.272013,126.762544 503.082537,128.292299 C503.319753,130.531505 500.329726,131.29084 501.80819,133.363769 C507.854444,133.884772 510.745172,131.074679 510.535539,125" id="Fill-1752" fill="#DCE9E9"></path>
                </g>
                <g id="section-title" transform="translate(354.000000, 65.000000)">
                    <g id="do-not-disturb" transform="translate(174.000000, 37.000000)" fill="#FF7DBB" fill-rule="nonzero">
                        <path d="M15.4083544,15.3080505 L8.02838293,12.4693746 C6.64144514,11.9361488 5.62620105,10.6042854 5.62620105,8.92117615 C5.65198056,7.11075127 7.1184833,5.63311646 8.895512,5.62667158 C10.7780609,5.62667158 12.187673,7.14942054 12.187673,8.9077005 C12.187673,10.4415815 13.4291909,11.7299127 15.0245912,11.720011 C16.5731197,11.7065353 17.823426,10.4152161 17.8123677,8.84090812 C17.794717,6.48735578 16.8684123,4.27441895 15.203876,2.61046858 C11.7248135,-0.869824256 6.08911907,-0.870410154 2.60941214,2.61046858 C0.927298922,4.29199589 0.000994152047,6.52836864 0.000994152047,8.9077005 L0.000994152047,27.1877187 C0.000994152047,28.7385908 1.26243259,30.0000292 2.81330465,30.0000292 L14.9999835,30.0000292 C16.5508555,30.0000292 17.8123677,28.7385908 17.8123677,27.1877187 L17.8123677,18.8076194 C17.8123677,17.2672935 16.8461481,15.8605523 15.4083544,15.3080505 Z M13.06652,26.2502819 L4.68817832,26.2502819 C4.17024447,26.2502819 3.75074148,25.8307789 3.75074148,25.3128451 C3.75074148,24.7949112 4.17024447,24.3754082 4.68817832,24.3754082 L13.06652,24.3754082 C13.5844539,24.3754082 14.0039568,24.7949112 14.0039568,25.3128451 C14.0039568,25.8307789 13.5844539,26.2502819 13.06652,26.2502819 Z M13.06652,22.5005346 L4.68817832,22.5005346 C4.17024447,22.5005346 3.75074148,22.0810316 3.75074148,21.5630977 C3.75074148,21.0451639 4.17024447,20.6256609 4.68817832,20.6256609 L13.06652,20.6256609 C13.5844539,20.6256609 14.0039568,21.0451639 14.0039568,21.5630977 C14.0039568,22.0810316 13.5844539,22.5005346 13.06652,22.5005346 Z" id="Shape"></path>
                    </g>
                    <g transform="translate(47.000000, 0.000000)"></g>
                </g>
            </g>
        </g>
    </g>
</svg>