<?xml version="1.0" encoding="utf-8"?>
<!-- Generator: Adobe Illustrator 15.0.0, SVG Export Plug-In . SVG Version: 6.00 Build 0)  -->
<!DOCTYPE svg PUBLIC "-//W3C//DTD SVG 1.1//EN" "http://www.w3.org/Graphics/SVG/1.1/DTD/svg11.dtd">
<svg version="1.1" id="Layer_1" xmlns="http://www.w3.org/2000/svg" xmlns:xlink="http://www.w3.org/1999/xlink" x="0px" y="0px"
	 width="21.73px" height="30px" viewBox="0.034 13 21.73 30" enable-background="new 0.034 13 21.73 30" xml:space="preserve">
<title>Shape</title>
<desc>Created with Sketch.</desc>
<g id="Welcome">
	<g id="Wedding-Website" transform="translate(-123.000000, -739.000000)">
		<g id="section-title" transform="translate(99.000000, 150.000000)">
			<g id="map-marker" transform="translate(0.000000, 12.000000)">
				<path id="Shape" fill="#FF7DBB" d="M34.898,590c-5.991,0-10.865,4.874-10.865,10.865c0,7.435,9.723,18.35,10.137,18.811
					c0.389,0.433,1.068,0.432,1.457,0c0.414-0.461,10.137-11.376,10.137-18.811C45.764,594.874,40.889,590,34.898,590z
					 M34.898,606.331c-3.014,0-5.466-2.452-5.466-5.466c0-3.015,2.452-5.467,5.466-5.467c3.014,0,5.467,2.452,5.467,5.467
					C40.365,603.879,37.912,606.331,34.898,606.331z"/>
			</g>
		</g>
	</g>
</g>
</svg>
