<?xml version="1.0" encoding="utf-8"?>
<!-- Generator: Adobe Illustrator 15.0.0, SVG Export Plug-In . SVG Version: 6.00 Build 0)  -->
<!DOCTYPE svg PUBLIC "-//W3C//DTD SVG 1.1//EN" "http://www.w3.org/Graphics/SVG/1.1/DTD/svg11.dtd">
<svg version="1.1" id="Layer_1" xmlns="http://www.w3.org/2000/svg" xmlns:xlink="http://www.w3.org/1999/xlink" x="0px" y="0px"
	 width="115px" height="107px" viewBox="0 0 115 107" enable-background="new 0 0 115 107" xml:space="preserve">
<title>airplane</title>
<desc>Created with Sketch.</desc>
<g id="Welcome">
	<g id="Wedding-Website" transform="translate(-417.000000, -1034.000000)">
		<g id="destination" transform="translate(24.000000, 577.000000)">
			<g id="stat" transform="translate(393.000000, 457.000000)">
				
					<g id="airplane" transform="translate(57.500000, 53.500000) rotate(90.000000) translate(-57.500000, -53.500000) translate(4.000000, -4.000000)">
					<path id="Fill-1" fill="#E2DDDE" d="M72.816,13.271c0.506-0.076,1.01-0.251,1.525-0.064c0.648,0.23,1.23,1.01,1.973,0.074
						c0.998-1.254,1.715-0.654,2.361,0.492c0.266-0.636-0.382-1.592,0.51-1.889c0.733-0.243,1.607-0.592,2.281,0.232
						c0.012,0.064,0.033,0.129,0.035,0.195c0.006,0.189-0.057,0.379-0.002,0.57c0.182-0.161-0.157-0.426,0.116-0.572
						c0.414-0.303,1.391,0.761,1.424-0.633c0.012-0.438,0.837-0.631,1.239-0.995c1.007-0.449,2.096-0.479,3.162-0.622
						c1.085,0.556,2.076-0.477,3.147-0.186c1.76,0.217,3.077,0.809,3.539,2.795c0.228,0.979,1.2,1.326,1.989,0.184
						c0.431-0.629,0.822-1.266,0.66-2.078c-0.129-0.656-0.053-1.23,0.68-1.512c0.182-0.043,0.367-0.049,0.552-0.033
						C98.163,9.1,98.364,9.676,98.5,9.196c0.129-0.13,0.282-0.194,0.465-0.196c0.455,0.092,0.807,0.38,1.192,0.609
						c0.157,0.096,0.308,0.208,0.45,0.328c0.699,0.664,0.377,1.154-0.275,1.59c-0.166,0.08-0.346,0.129-0.53,0.147
						c-0.185-0.019-0.335-0.095-0.453-0.234c-0.023-0.139,0.107-0.279,0.003-0.421c0.039,0.211-0.09,0.322-0.256,0.41
						c-0.219-0.014-0.393-0.09-0.479-0.303c-0.221,0.201-0.008,0.388,0.088,0.477c0.805,0.762,1.473,1.623,2.049,2.561
						c0.049,0.19,0.064,0.383,0.041,0.578c-0.39,0.277-0.76,0.604-1.305,0.432c-0.979-1.516-0.935,0.663-1.562,0.419
						c-0.17,0.054-0.347,0.086-0.525,0.103c-0.709-0.393-1.053,0.131-1.438,0.557c-2.52,1.137-5.124,2.143-7.347,3.792
						c-1.139,0.845-2.965,0.519-3.599,2.135c-1.978,0.604-3.576,1.966-5.512,2.668c-0.382,0.139-0.716,0.405-1.156,0.279
						c-0.006-0.308,0.24-0.439,0.438-0.606c-0.161,0.012-0.309,0.07-0.458,0.114c-0.704,0.21-1.109,0.72-1.373,1.364
						c-0.891,0.465-1.538,1.4-2.697,1.344c-0.092-0.773,1.094-0.969,0.83-1.812c-0.885-1.535-2.102-1.317-3.498-0.457
						c0.342,0.749,1.716,1.372,0.877,2.601c-1.452,0.826-2.887,1.571-4.621,1.883c-1.037,0.188-1.99,1.182-2.928,1.893
						c-0.127,0.081-0.257,0.16-0.388,0.24c-1.206-0.189-2.452,0.861-3.64-0.104c-2.801-0.48-3.686-2.059-2.579-4.441
						c0.503-1.086,1.271-1.008,1.677-0.219c0.616,1.198,1.59,1.395,2.576,1.502c-2.004-0.356-3.089-1.955-4.135-3.578
						c-0.457-0.709-0.48-1.517,0.146-2.098c0.971-0.905,0.377-1.475-0.453-1.525c-1.464-0.092-2.003-2.005-3.911-1.521
						c0.941,0.329,1.877,0.387,1.9,1.482c0.012,0.51,0.518,0.79,1.013,0.932c0.558,0.157,1.12,0.299,1.01,1.059
						c-0.099,0.674-0.71,1.07-1.181,0.933c-0.869-0.249-0.918,0.622-1.443,0.763c-0.2,0.02-0.375-0.034-0.527-0.158
						c-0.75-0.71-1.092-1.955-2.479-1.834c-0.944-0.253-1.116-1.051-1.335-1.814c-0.676-1.783,0.783-2.467,1.8-3.385
						c0.163-0.113,0.342-0.176,0.54-0.188c1.486,0.269,3.005-0.388,4.492,0.198c0.679,0.27,1.036-0.197,1.209-0.795
						c0.244-0.85,1.148-1.195,1.633-0.91c1.777,1.039,3.969-0.164,5.612,1.225c0.728-2.505,2.974-3.315,5.862-2.173
						c0.184,0.074,0.469,0.309,0.526,0.22c0.169-0.271-0.227-0.4-0.29-0.641C72.354,14.111,72.781,13.729,72.816,13.271"/>
					<path id="Fill-3" fill="#EBE8E8" d="M65.67,57.265c1.489,0.567,1.751,2.036,2.32,3.21c0.609,1.257,1.797,2.113,2.257,3.437
						c1.368,0.026,1.106,0.918,0.998,1.758c-0.058,0.438,0.238,0.775,0.456,1.128c1.618,2.604,3.233,5.211,4.85,7.815
						c0.146,0.236,0.389,0.446,0.445,0.697c0.467,2.002,1.8,3.506,3.004,5.087c-0.297,0.437-0.766,0.398-1.098,0.187
						c-1.564-0.993-3.243-1.727-5.021-2.255c-0.349-0.26-0.613-0.606-0.971-0.858c0.212,0.322,0.136,0.643-0.006,0.963
						c-0.104,0.184-0.22,0.451-0.389,0.471c-2.846,0.333-3.004,2.33-2.936,4.478c0.01,0.288-0.072,0.537-0.409,0.615
						c-0.392-0.769-1.151-1.195-1.718-1.801c-1.88-2.009-3.544-4.187-5.211-6.365c-0.542-0.706-1.441-1.189-1.854-1.945
						c-1.781-3.265-4.58-5.762-6.712-8.754c-0.792-1.138-1.046-2.273,0.108-3.334c0.321-0.294,0.362-0.516,0.122-0.857
						c-1.045-1.496,0.287-2.026,1.172-2.736c0.688,0.086,1.363,0.463,2.021,0.307c0.185-0.044,1.495,1.724,0.837-0.338
						c-0.172-0.534,0.416-0.568,0.853-0.441c0.525,0.154,0.89,0.541,1.229,1c0.426-0.699,0.633-1.331,0.595-2.025
						c-0.049-0.275-0.024,0.07-0.022-0.202c0-0.833-0.797-1.935,0.178-2.423c0.791-0.396,1.308,0.706,1.947,1.179
						C63.666,55.963,64.914,56.264,65.67,57.265"/>
					<path id="Fill-5" fill="#E0DCDD" d="M30.6,4c1.481,1.696,2.961,3.393,4.443,5.09c-0.503,1.005,1.739,1.725,0.296,2.854
						c-0.319,0.248,0.033,0.302,0.204,0.269c1.227-0.237,1.607,0.872,2.337,1.419c0.228,0.292,0.266,0.657,0.383,0.992
						c0.034,0.168,0.035,0.34,0.014,0.511c-0.107,0.185-0.065,0.249,0.152,0.179c0.17,0.056,0.321,0.142,0.456,0.26
						c0.261,0.27,0.441,0.582,0.505,0.953c0.01,0.192-0.029,0.375-0.104,0.551c-0.023,0.064-0.05,0.129-0.082,0.189
						c-0.322,0.631,0.505,1.898-0.526,1.908c-1.027,0.008-2.58-0.209-2.732-1.682c-0.137-1.344-0.94-1.053-1.734-1.062
						c0.465,2.27,3.015,2.608,4.097,4.316c0.104,0.163,0.952,0.799,1.139-0.391c0.13-0.818,0.866-0.334,1.306-0.021
						c0.727,0.521,1.099,1.418,1.951,1.811c0.104,0.169,0.166,0.352,0.196,0.545c-0.358,1.277,0.965,2.312,0.54,3.602
						c-0.453,0.523-0.453,1.071-0.169,1.69c0.879,1.913,1.04,4.034,1.729,6.005c-1.393,0.129-2.575-0.736-3.948-0.824
						c-0.488-0.032-0.75-0.902-0.535-1.414c0.445-1.072,0.003-1.959-0.583-2.678c-1.383-1.701-2.142-3.711-3.147-5.693
						c2.443,3.269-0.329,5.928-0.888,8.814c-0.117,0.16-0.264,0.291-0.432,0.4c-1.74-0.666-2.322-2.396-1.229-3.701
						c0.794-0.952-0.231-1.955-0.035-2.473c-0.025,0.16,0.276,1.025-0.761,1.136c-0.904,0.096-0.898-0.619-1.135-1.188
						c-0.583-1.401-1.477-2.372-3.155-2.666c-2.977-0.521-3.925-2.674-2.413-5.282c0.388-0.669,0.784-1.237,0.507-2.056
						c-0.92,0.188-1.07,1.133-1.873,1.385c-2.415,0.767-3.315,0.355-4.362-2.026c-0.264-0.599-0.092-1.438-0.892-1.782
						c-0.657-1.726-1.511-3.379-1.981-5.176c0.141-0.383-0.518-0.91,0.221-1.184c1.552,0.149,0.892,1.65,1.493,2.381
						c0.057,0.186,0.092,0.373,0.116,0.563c0.137,2.084,2.214,3.071,2.899,4.879c0.1,0.263,0.95-1.061,1.864-0.568
						c-1.439-1.187-1.647-2.88-1.953-4.46c-0.263-1.349,0.471-1.557,2.435-0.76c0.336,0.212,0.672,0.428,0.883,0.756
						c0.012,0.076,0.025,0.125,0.025,0.125c0.048,0.026,0.099,0.016,0.152-0.038c0.059-0.056,0.072-0.105,0.048-0.16
						c1.114-0.515,0.941,1.018,1.723,1.037c-0.629,1.405,1.232,1.509,1.279,2.408c-0.505-0.741-0.995-1.648-1.533-2.525
						c-0.604-0.456-0.453-0.97-0.02-1.392c0.764-0.75,1.526-0.227,2.321,0.107c-0.035-0.491-0.724-1.074-0.344-1.346
						c1.784-1.27,0.709-2.75,0.478-4.184C30.191,4.205,30.377,4.048,30.6,4"/>
					<path id="Fill-7" fill="#DBD6D8" d="M20.001,14c0.508,0.01,0.786,0.316,0.854,0.756c0.147,0.938,0.801,1.594,1.278,2.347
						c0.37,0.582,0.752,1.038,1.421,0.24c0.338-0.403,0.775-0.013,1.167,0.056c0.449,0.079,0.977,0.012,1.034-0.45
						c0.146-1.25,1.127-1.206,2.118-1.423c-0.039,0.893-0.075,1.752-0.115,2.608c-0.014,0.276-0.029,0.628-0.377,0.638
						c-0.64,0.02-0.881,0.173-0.613,0.847c0.112,0.284,0.019,0.685-0.076,1.007c-0.422,1.443-0.387,1.807,0.957,1.744
						c0.994-0.046,0.528,1.008,1.067,0.847c0.697-0.207,1.231,0.183,1.831,0.301c0.557,0.11,2.083,2.067,2.165,2.679
						c0.059,0.441-0.181,1.09,0.623,1.001c0.9-0.099,0.185-0.761,0.318-1.144c0.156-0.441,0.176-0.93,0.285-1.589
						c0.764,0.829,0.618,1.774,0.826,2.601c0.298,1.201,0.59,2.391-1.625,2.762c1.271,0.523,1.5,1.273,1.59,2.123
						c0.054,0.506,0.414,0.437,0.762,0.25c0.582,0.678,1.118,1.324,1.935,1.848c1.179,0.751,1.761,2.098,1.719,3.974
						c0.772-1.349,0.79-2.71,2.08-3.198c0.08-0.181,0.343-0.077,0.427-0.258c-0.167-0.035-0.214,0.188-0.377,0.174
						c-1.566,0.62-2.786-0.273-3.91-1.043c-0.64-0.437-1.318-0.912-1.872-1.496c0.577-1.146,0.111-2.533,0.87-3.672
						c0.087-0.134-0.464-0.53,0.323-0.644c0.818-0.116,1.058-1.342,0.707-1.552c-1.409-0.839-0.658-2.422-1.529-3.397
						c1.927,0.034,1.878,0.043,2.211,1.632c0.228,1.084,0.476,2.123,1.568,2.887c0.903,0.629,0.615,2.167,1.744,2.853
						c0.211,0.13-0.025,0.741-0.387,1.054c-0.461,0.396-0.194,0.895-0.019,1.317c0.201,0.479,0.759,0.539,1.074,0.339
						c1.156-0.733,1.677-0.035,2.227,0.784c0.091,0.135,0.374,0.145,0.566,0.212c1.143,0.672,0.846,1.531,0.329,2.418
						c-0.995,0.177-1.163,1.926-2.662,1.209c1.432,0.442,1.915,1.811,3.047,2.496c1.203,0.729,1.543,2.364,2.322,3.564
						c0.438,0.678-0.46,1.121-1.213,1.227c-0.507-0.023-0.816-1.014-1.593-0.016c-0.616,0.79-1.308-0.29-1.876-0.762
						c-0.189,0.344-0.055,0.695-0.15,1.02c-0.059,0.189-0.166,0.348-0.31,0.486c-0.335,0.24-0.724,0.285-1.123,0.301
						c-0.943,0.143-1.632-0.025-2.21-0.961c-0.514-0.834-1.489-1.369-2.176-2.125c-1.709-3.539-4.998-6.027-6.618-9.613
						c-0.496-1.099-1.283-1.735-2.451-1.974c-0.768-0.423-0.757-1.108-0.642-1.828c0.613-1.021-0.546-1.792-0.402-2.746
						c0.067,0,0.193-0.007,0.194,0.002c0.037,0.274,0.295,0.337,0.129,0.132c-0.573-0.711-0.527-1.873-1.644-2.186
						c-0.283-0.377-0.6-0.742-0.449-1.268c0.075-0.826-0.533-1.238-1.065-1.697c-0.092-0.121-0.185-0.244-0.275-0.366
						c0.129-0.572-0.099-0.913-0.685-1.021c-0.085-0.118-0.171-0.236-0.256-0.354c0.057-0.341-0.064-0.571-0.416-0.667
						c-1.141-1.479-2.237-2.979-2.408-4.913c-0.184-0.06-0.268-0.178-0.241-0.368L20.001,14z"/>
					<path id="Fill-9" fill="#E5E1E1" d="M82.708,82.116c1.048-0.242,2.138-0.321,3.114-0.847c0.23-0.123,0.529-0.217,0.78-0.187
						c2.129,0.238,4.26-0.437,6.412,0.198c1.412,0.418,2.946,0.425,4.429,0.583c0.473,0.048,0.963-0.035,1.277,0.445
						c0.103,0.471-0.023,0.948,0.104,1.436c0.471,1.785,0.031,2.188-1.777,1.787c-0.92-0.205-1.691-0.696-2.252-1.371
						c-0.817-0.983-1.638-1.608-2.965-1.108c-0.436,0.164-1.099-0.734-1.368,0.174c-0.193,0.651-0.225,1.503,0.311,1.973
						c2.542,2.24,1.639,5.194,1.558,7.896c-0.037,1.289,0.283,1.257,1.177,0.978c0.307-0.043,0.573,0.031,0.794,0.255
						c-0.623,1.353-1.908,1.925-3.137,2.388c-0.908,0.341-1.199,0.759-1.021,1.633c0.131,0.65,0.063,1.23-0.512,1.652
						c-0.334-0.018-0.593-0.187-0.82-0.415c-0.689-1.515-2.191-2.709-1.818-4.646c0.098-0.16,0.043-0.428,0.32-0.47
						c-0.367,0.045-0.232,0.483-0.484,0.624c-1.495,0.15-1.539-0.986-1.736-1.988c-0.008-0.619,0.121-1.191,0.567-1.65
						c0.542-0.2,0.543-0.956,1.122-1.122c1.76,0.312,1.793,2.301,3.191,3.062c-0.914-1.237-1.586-2.572-1.968-4.054
						c-0.188-0.739-1.425,0.503-1.562-0.706c-0.02-0.177-0.355-0.235-0.149-0.058c0.073,0.066-0.01,0.262-0.091,0.394
						c-0.39,0.331-0.832,0.417-1.316,0.324c-0.279-0.138-0.438-0.361-0.486-0.67c0.293-0.943,0.252-1.659-1.027-1.53
						c-0.191,0.017-0.373-0.012-0.552-0.078c-0.5-0.473-0.656-1.13-0.912-1.735c-0.136-0.581-0.534-0.974-0.964-1.346
						c-0.441-0.45-0.811-0.941-0.945-1.578c0.02-0.748,0.301-1.246,1.057-0.708C81.586,82.025,82.106,82.146,82.708,82.116"/>
					<path id="Fill-11" fill="#DCD7D8" d="M43.121,22.863c-1.255-0.337-1.663-1.711-2.708-2.314
						c-0.636,0.35-0.025,0.877-0.168,1.329c-0.522-0.107-1.046-0.222-1.569-0.321c-0.253-0.049-0.664,0.098-0.697-0.263
						c-0.133-1.478-1.235-1.69-2.31-1.976c-0.288-0.076-0.472-0.311-0.511-0.604c-0.115-0.884-0.826-1.45-1.158-2.341
						c0.578-0.119,1.134-0.276,1.696-0.346c0.879-0.107,1.411,0.061,1.201,1.236c-0.12,0.67-0.011,1.613,1.183,1.192
						c0.651-0.231,0.516,0.765,1.083,0.759c0.519-0.516-0.067-0.852-0.227-1.24c-0.389-0.955,0.362-0.838,0.847-0.976
						c0.769-0.112,1.249,0.622,1.952,0.699c0.153,0.224,0.306,0.451,0.458,0.675c1.704,1.242,2.555,3.162,3.688,4.857
						c0.296,0.443,0.321,1.083,0.909,1.309c0.158,0.096,0.296,0.219,0.417,0.358c0.276,0.465,0.651,0.86,0.925,1.331
						c0.069,0.166,0.102,0.342,0.11,0.523c-0.023,0.424-0.108,0.859,0.194,1.232c0.133,0.129,0.256,0.258,0.386,0.386
						c2.711,2.456,4.669,5.395,5.297,9.093c0.102,0.598,0.844,1.019,0.42,1.719c-0.199,0.168-0.404,0.305-0.683,0.201
						c-0.131-0.049-0.202-0.16-0.284-0.26c0.008,0.205,0.174,0.325,0.265,0.497c1.479,1.731,1.158,3.806,1.077,5.825
						c-0.047,1.17-0.852,1.545-1.832,1.555c-0.857,0.008-1.712-0.209-1.897-1.234c-0.181-1.002,0.516-1.406,1.326-1.636
						c-0.125-0.193-0.284-0.345-0.417-0.525c-0.171-0.207-0.327-0.417-0.491-0.626c-1.405-1.025-1.846-2.336-1.763-4.156
						c0.171-3.795-0.012-4.014-1.421-5.89c-0.087-0.27-0.366,0.251-0.163,0.061c0.087-0.081,0.169-0.06,0.182,0.079
						c0.122,1.106,1.103,2.555-0.328,3.191c-1.688,0.751-1.692-1.135-2.143-2.078c-0.651-1.365-1.31-2.734-1.098-4.393
						c0.156-1.215-1.587-1.788-1.278-3.172c0.199-0.525-0.081-0.926-0.362-1.297C42.621,24.521,42.669,23.707,43.121,22.863"/>
					<path id="Fill-13" fill="#D9D5D7" d="M23.402,65.868c-0.122,1.208-0.929,1.833-1.973,2.26
						c-0.196,0.003-0.391,0.042-0.579-0.013c-0.267,0.041-0.189,0.277-0.249,0.444c-0.296,0.653-0.475,1.536-1.386,1.433
						c-0.753-0.084-0.904-0.914-1.082-1.524c-0.145-0.488-0.5-0.943-0.372-1.5c0.044-0.048,0.105-0.091,0.131-0.149
						c0.165-0.347,0.934-0.008,0.796-0.631c-0.089-0.398-0.327-0.64-0.427,0.034c-0.031,0.203-0.174,0.345-0.375,0.425
						c-0.276,0.039-0.538,0.008-0.75-0.201c-0.083,0.293,0.27,0.318,0.33,0.521c0.125,0.409,0.691,0.744,0.209,1.25
						c-1.353-0.616-2.619-0.493-3.793,0.428c-0.194,0.005-0.385-0.022-0.572-0.076c-1.174-0.694-1.595-1.708-0.896-2.877
						c1.422-2.37,1.461-2.381-0.879-3.698C11.36,61.894,11.168,61.82,11,61.701c0.207-2.616,1.141-3.636,3.16-3.309
						c-0.436-0.814-1.413-1.518-0.47-2.492c0.92-1.107,1.131-2.683,2.412-3.552c0.209,0.058,0.423,0.212,0.39,0.4
						c-0.411,2.328,0.321,4.679-0.062,6.966c-0.166,0.981,0.546,1.209,0.791,1.798c0.176,0.423,0.735,0.203,1.113,0.068
						c0.504-0.18,0.266-0.563,0.153-0.847c-0.876-2.182,0.085-4.776-1.605-6.788c-0.595-0.707,0.107-1.238,0.452-1.789
						c-0.079-0.228,0.801-0.059,0.21-0.508c-0.024-0.174,0.021-0.322,0.138-0.456c0.148-0.108,0.309-0.173,0.492-0.194
						c1.62,0.587,1.072,2.309,1.772,3.406c0.437,0.686,0.72,1.566,1.121,2.338c0.061,0.18,0.09,0.364,0.097,0.552
						c-0.188,1.158-0.702,2.346,0.378,3.353c0.342-0.287,0.363-0.744,0.347-1.216c0.064-0.18,0.176-0.322,0.331-0.436
						c1.475,0.247,3.206,2.831,2.629,3.995c-0.249,0.504-0.707,0.802-1.347,0.467c-0.184-0.096-0.429-0.935-0.653-0.013
						c0.166-0.059-0.875,0.52,0.038,0.068c0.195-0.096,0.431-0.096,0.583,0.024c0.5,0.396,1.051-0.394,1.527,0.089
						C25.061,64.786,23.563,64.862,23.402,65.868"/>
					<path id="Fill-15" fill="#E9E5E5" d="M93.93,94.165c-0.476,0.236-0.714,1.538-1.516,0.328
						c-1.385,0.223-0.455-0.746-0.396-0.951c0.428-1.47,0.752-2.89-0.377-4.22c-0.181-0.212-0.125-0.422,0.035-0.703
						c0.664-1.164,0.586-1.662-0.248-2.281c-0.425-0.314-1.297-0.256-1.279-0.869c0.029-0.931-0.318-1.846-0.039-2.786
						c0.223-0.76,0.646-0.896,1.146-0.357c0.572,0.613,0.916,0.725,1.672,0.133c0.706-0.555,1.4,0.064,1.781,0.739
						c0.744,1.319,1.931,1.916,3.369,2.176c0.34,0.062,0.725,0.194,0.88-0.222c0.079-0.22,0.058-0.667-0.081-0.749
						c-1.18-0.695-0.475-1.274,0.072-1.875c1.836,0.032,3.515,0.566,5.043,1.556c1.934,0.46,2.248,1.767,1.866,3.44
						c-0.296,0.364-0.698,0.611-1.009,0.973c-0.918,1.064-1.836,1.251-2.802-0.071c-0.614-0.838-1.453-1.517-2.907-1.307
						c1.539,1.127,4.188,1.814,1.894,4.306c-0.502,0.281-0.903,0.828-1.604,0.592c-1.851,0.704-2.905-0.566-4.062-1.578
						c-0.253-0.205-0.445-0.792-0.85-0.16c-0.448,0.705-0.448,1.481-0.297,2.268c0.068,0.461,0.237,0.909,0.162,1.384
						C94.293,94.125,94.143,94.202,93.93,94.165"/>
					<path id="Fill-17" fill="#CFCBCD" d="M47.732,28.613c-1.194-0.496-0.047-0.998-0.005-1.499c0.896-1.068-0.676-1.72-0.482-2.669
						c1.233-1.588-0.116-2.351-1.102-3.227c-0.404-0.703-0.889-1.039-1.618-0.346c-1.249-0.045-1.864-0.533-1.335-1.808
						c2.138,0.098,4.207-0.449,6.311-0.665c1.259-0.129,2.526-0.254,3.785-0.4c0.085,0.028,0.17,0.055,0.256,0.081
						c-0.003,0.087-0.01,0.173-0.016,0.261c-0.112,0.081-0.227,0.158-0.342,0.238c-0.715,0.725-1.657,1.011-2.626,1.106
						c-0.644,0.062-1.313-0.077-1.603,0.664c-0.268,0.688,0.373,0.956,0.744,1.331c0.244,0.243,0.313,0.626,0.691,0.767
						c0.549-0.103,0.47-1.065,1.244-0.872c0.487,0.516,0.032,1.645,1.19,1.727c0.789,0.658,1.774,1.088,2.388,1.947l0.118,0.172
						l0.119,0.17c0.461,0.238,0.385,0.791,0.705,1.111c0.131,0.141,0.241,0.287,0.352,0.441c0.268,0.494,0.592,1.018-0.025,1.461
						c-0.412,0.298-0.777-0.014-1.154-0.211c-1.373-0.719-2.441-1.742-3.388-2.922c0.785,1.334,1.991,2.404,2.768,3.762
						c0.341,0.598,1.009,0.637,1.661,0.727c1.816,0.249,2.762,1.523,3.422,3.011c0.422,0.948,0.269,1.768-0.992,2.001
						c-0.354,0.213-0.708,0.426-1.061,0.639c-0.632-0.725-1.518-1.185-2.227-1.871c0.709,0.861,1.535,1.688,1.396,2.915
						c-0.173,0.11-0.334,0.237-0.517,0.329c-2.129,1.05-2.129,1.049-0.771,2.943c0.285,0.127,0.448,0.354,0.555,0.627
						c-0.028,0.2-0.136,0.346-0.321,0.438c-0.423,0.047-0.771-0.133-1.112-0.338c-0.16-0.115-0.298-0.252-0.421-0.404
						c-0.163-0.255-0.226-0.527-0.136-0.822c-0.119-1.359-1.22-2.474-1.031-3.924c0.024-0.186-0.337-0.403-0.492-0.625
						c-0.841-1.182-1.91-2.234-2.281-3.689c-0.133-0.521-0.54-0.798-0.991-1.014c-0.731-0.35-1.255-0.891-1.656-1.562H47.732z"/>
					<path id="Fill-19" fill="#CECACC" d="M38.005,43.511c0.713,0.817,2.162,0.872,2.36,2.293c0.049,0.347,0.97-0.278,1.378,0.228
						c0.218,0.166,0.437,0.336,0.583,0.566c0.476,0.754,1.13,1.769,0.209,2.312c-0.819,0.481-0.943-0.86-1.469-1.299
						c-0.161-0.137-0.31-0.242-0.511-0.295c-0.95,0.488-1.524,1.339-2.104,2.162c-0.981,1.387-2.108,2.619-3.584,3.521
						c-0.136-2.154-1.293-3.684-2.988-4.998c-1.198-0.925-1.369-2.694-2.749-3.541c-1.521-1.637-3.516-2.951-3.812-5.419
						c-0.059-0.486-0.383-0.912-0.956-0.938c-0.498-0.023-0.7,0.389-0.864,0.766c-0.724,1.646-2.274,2.771-2.93,4.455
						c-0.062,0.182-0.139,0.356-0.216,0.533c-0.07,0.178-0.159,0.348-0.251,0.514c-1.229,1.49-1.002,3.693-2.631,5.012
						c-0.467,0.379-0.695,1.041-1.472,0.603c0.049-0.192,0.096-0.386,0.143-0.577c0.045-0.189,0.12-0.373,0.139-0.566
						c0.089-0.09,0.186-0.167,0.292-0.234c0.102-0.18,0.151-0.371,0.169-0.574C19.693,41.629,24.083,36.047,27.66,30
						c0.203,0.537,0.405,1.074,0.611,1.612c0.047,0.083,0.095,0.167,0.144,0.25c0.059,0.192,0.144,0.501,0.03,0.567
						c-1.806,1.053-0.536,1.77,0.273,2.54c0.398,0.856,0.097,1.57-0.431,2.275c-0.584,0.782-0.56,1.598-0.196,2.509
						c0.377,0.949,0.491,2.069,2.122,1.185c-0.151-0.501-1.114-1.23-0.049-1.838c1.032-0.587,1.392,0.341,1.769,0.907
						c0.658,0.986,1.853,1.176,2.665,1.905c0.074,0.187,0.077,0.372-0.001,0.557c-1.938,1.829-0.795,3.687-0.25,5.2
						c-0.293-0.443-0.482-1.301-0.494-2.211c-0.007-0.723-0.308-1.609,0.792-1.801c0.94-0.164,1.822,0.027,2.298,0.98
						c0.183,0.363,0.2,0.801,0.462,1.129c0.265,0.334,0.64,0.643,1.067,0.454c0.569-0.251,0.203-0.673,0.039-1.014
						C38.25,44.666,37.779,44.188,38.005,43.511"/>
					<path id="Fill-21" fill="#D7D4D6" d="M8.338,81.674c-0.179,0.785-0.939,1.132-1.351,1.756
						c-0.429,0.653-1.132,0.689-1.841,0.387c-0.866-0.464-2.1,0.534-2.792-0.759c-0.408-0.761-0.24-1.381,0.127-2.041
						c-0.792,0.414-1.5,0.149-1.923-0.498c-0.41-0.626-1.056-1.382,0.082-2.073c0.794-0.481-0.272-1.264,0.17-1.855
						c-0.034-0.354,0.158-0.585,0.428-0.774c0.255-0.4,0.313-0.951,0.866-1.131c1.152,0.511-0.027,1.404,0.38,2.391
						c0.507-1.485,0.71-2.747,1.232-3.888c0.322-0.61-0.237-0.854-0.517-1.213c0.015-0.364,0.222-0.607,0.507-0.802
						c0.134-0.081,0.255-0.066,0.359,0.043c0.255-0.144-0.14-0.342,0.048-0.495c0.229-0.29,0.509-0.423,0.882-0.328
						c0.889,0.346,1.022,1.03,0.871,1.859C5.678,73.27,5.749,74.33,5.451,75.32c-0.522,1.718,1.58,0.969,1.853,1.946
						c0.007,0.02,0.273-0.382,0.372-0.577c0.32-0.64-0.122-1.184-0.369-1.733c-0.225-0.498-0.596-0.944-0.389-1.548
						c0.255-0.744,0.822-0.926,1.534-0.861c-0.543-0.456-1.087-0.896-0.541-1.713c0.551-0.822,0.766-1.987,2.184-1.817
						c1.427,0.172,1.404,1.258,1.551,2.26c0.132,0.126,0.252,0.26,0.372,0.394c0.608,1.133,1.322,2.079,2.852,1.632
						c0.484,0.734-0.54,0.896-0.554,1.442c-0.282,0.491-0.872,0.549-1.269,0.889c-0.588,0.506-0.088,0.569,0.259,0.714
						c-0.392,1.222-1.957,1.351-2.394,2.532c-0.992,0.19-1.264,1.109-1.81,1.752c-0.053,0.186-0.106,0.372-0.162,0.559
						C8.658,81.252,8.181,81.076,8.338,81.674"/>
					<g id="Group-25" transform="translate(18.000000, 0.000000)">
						<g id="Clip-24">
						</g>
						<defs>
							<filter id="Adobe_OpacityMaskFilter" filterUnits="userSpaceOnUse">
								<feColorMatrix  type="matrix" values="1 0 0 0 0  0 1 0 0 0  0 0 1 0 0  0 0 0 1 0"/>
							</filter>
						</defs>
						<mask maskUnits="userSpaceOnUse" id="mask-2">
							<g filter="url(#Adobe_OpacityMaskFilter)">
								<polygon id="path-1" fill="#FFFFFF" points="0.281,0.465 11.847,0.465 11.847,16.398 0.281,16.398 								"/>
							</g>
						</mask>
						<path id="Fill-23" mask="url(#mask-2)" fill="#EBE8E8" d="M7.281,10.082C6.662,9.816,6.13,9.25,5.27,9.508
							c-0.175,1.521,0.965,2.695,1.034,4.113c0.015,0.333,0.571,0.34,0.883,0.492c0.634,0.307,0.615,0.816,0.437,1.376
							c-1.356-0.434-1.356-0.434-3.165,0.909c0.141-1.112-0.461-1.738-1.092-2.496c-0.855-1.026-2.402-1.947-1.708-3.689v0.002
							C1.264,9.648,0.801,9.119,0.938,8.354C1.012,7.936,0.605,7.795,0.336,7.59L0.281,7.395c0.087-0.108,0.144-0.23,0.171-0.365
							c0.168-1.627,1.438-2.752,2.097-4.158C2.81,2.316,3.473,1.968,4.083,1.827C5.53,1.49,7.01,1.312,8.344,0.582
							c0.559-0.305,1.111,0.021,1.44,0.545c0.285,0.451,0.324,1.062,0.941,1.295c0.535,0.588,2.302,1.258-0.13,1.641
							c-1.017,0.16-1.428,0.611-0.71,1.525c0.128,0.165,0.252,0.332,0.35,0.514c0.333,0.618,0.692,1.338,0.177,1.911
							c-0.502,0.56-1.174,0.005-1.755-0.149C8.316,7.773,7.99,7.617,7.742,7.262C7.586,8.235,8.594,9.35,7.281,10.082"/>
					</g>
					<path id="Fill-26" fill="#DFDCDD" d="M11.928,72.346c-0.543,0.308-0.777,0.135-0.639-0.451c0.15-0.635,0.532-1.237-0.556-1.504
						c-0.962-0.235-1.384,0.096-1.698,0.936c-0.39,1.049-0.407,1.213,0.283,1.881c0.148,0.142,0.319,0.262,0.446,0.42
						c0.219,0.275,0.411,0.627,0.062,0.886c-0.301,0.22-0.683,0.108-0.91-0.195c-0.191-0.252-0.178-0.677-0.663-0.674
						c-0.342,0.561-1.021,1.007-0.04,1.739c0.663,0.495,0.519,1.494,0.002,2.621C8.08,78.301,8.74,78.506,8.286,79
						c-0.821-0.633-1.523-1.687-2.873-1.202c-0.267,0.094-0.543-0.456-0.347-0.782c0.737-1.239,0.387-2.687,0.808-3.948
						c0.298-0.886-0.156-1.236-0.599-1.725c-0.135-0.288-0.11-0.57,0.038-0.847c0.143-0.233,0.303-0.557,0.535-0.603
						c2.116-0.42,1.5-1.858,1.25-3.176c-0.076-0.415,0.092-0.804,0.222-1.194c0.115-0.068,0.227-0.14,0.337-0.213
						c0.188,0.04,0.369,0.093,0.544,0.16c0.959,0.282,1.593,1.001,2.418,1.916c-0.012-0.02,0.202-0.417,0.007-0.225
						c-0.675,0.661-0.721-1.904-0.066-3.56c0.191-0.391,0.276-0.812,0.314-1.244c0.033-0.08,0.067-0.158,0.102-0.236
						c1.512-0.6,1.969,1.195,3.149,1.376c0.128,0.02-0.507,2.542-0.773,2.593c-2.015,0.384-0.464,1.504-0.474,2.275
						c-0.001,0.148,0.419,0.301,0.646,0.453c1.025-0.093,1.283-1.132,2.053-1.71c0.633,0.547,1.242,1.067,1.849,1.586
						c-0.008,0.068-0.015,0.137-0.02,0.205c-0.049,0.122-0.113,0.238-0.184,0.345c0.008,0.001-0.01,0.189-0.01,0.189
						s0.144,0.125,0.151,0.128c0.412,0.549,0.739,1.117,0.604,1.837c-0.069,0.177-0.169,0.333-0.303,0.47
						c-0.81,0.634-1.453,0.16-2.091-0.308c-0.292-0.227-0.465-0.529-0.567-0.873c-0.089-0.194-0.16-0.396-0.169-0.604
						c-0.011-0.093-0.003-0.195,0.02-0.278c-0.002,0.016-0.12,0.057-0.12,0.057s-0.023,0.123-0.02,0.135
						c-0.008,0.122-0.011,0.233,0.001,0.35c0.076,0.199,0.257,0.337,0.278,0.559c0.029,0.629-0.26,1.333,0.457,1.788
						c0.377,0.59,0.232,1.067-0.314,1.458c-0.54,0.411-1.183,0.578-1.856,0.805C12.828,74.077,12.377,73.212,11.928,72.346"/>
					<path id="Fill-28" fill="#DCD7D9" d="M58.33,33.963c0.295-0.268,0.782-0.466,0.715-0.924c-0.277-1.928-1.094-3.447-3.554-3.309
						c-0.539,0.031-0.994-0.171-1.208-0.59c-0.998-1.949-2.955-3.347-3.283-5.809c1.383,0.161,1.564,1.641,2.424,2.324
						c0.791,0.626,1.906,0.82,2.354,1.91c0.401-0.788-0.08-1.152-0.315-1.594h0.004c-1.066-0.156-0.164-0.852-0.346-1.251
						c0.215-0.174,0.426-0.371,0.393-0.667c-0.039-0.387-0.282-0.918,0.471-0.405c0.479,0.327,0.909-0.099,1.354-0.196
						c0.126-0.029,0.263-0.319,0.271-0.495c0.015-0.332-0.211-0.282-0.5-0.344c-1.699-0.369-1.757-0.481-1.894-2.224
						c-0.532,0.071-1.057,0.252-1.604,0.033c-0.358-0.143-0.58-0.353-0.539-0.746c0.041-0.378,0.261-0.643,0.653-0.656
						c0.738-0.024,1.479-0.034,2.215,0.004c0.284,0.014,0.525,0.271,0.466,0.564c-0.114,0.545,0.098,0.592,0.594,0.723
						c1.091,0.283,2.237,0.59,2.855,1.66c-0.021,0.271-0.142,0.434-0.348,0.5c-0.604,0.195-1.384,0.486-1.252,1.131
						c0.177,0.847,0.491,1.753,1.196,2.387c0.136,0.121,0.527,0.062,0.564,0.17c0.456,1.311,1.564,1.517,2.727,1.744
						c0.469,0.092,0.158,0.564,0.113,0.863c-0.072,0.482-0.297,0.148-0.537,0.131c-1.643-0.127-2.651-1.201-3.555-2.551
						c-0.627,0.774,0.279,1.884-0.893,2.209c-0.172,0.047-0.092,0.447,0.1,0.707c0.932,1.254,1.355,1.518,2.748,1.588
						c0.021,0.911-0.799,1.554-0.793,2.46C59.431,33.617,59.025,34.145,58.33,33.963"/>
					<path id="Fill-30" fill="#D7D3D5" d="M40,47.511c0.982-0.022,0.989,1.071,1.814,1.44c0.542-1.095-0.818-1.779-0.613-2.729
						c0.317-0.04,0.63-0.077,0.947-0.116c0.354,0.054,0.528,0.432,0.893,0.46c0.149,0.044,0.279,0.123,0.379,0.231
						c-0.007-0.01,0.046,0.158,0.046,0.158s0.15-0.098,0.144-0.105c-0.153-0.354-0.529-0.211-0.774-0.346
						c-0.259-0.139-0.411-0.325-0.335-0.627c-0.351-0.621-1.054-1.281,0.217-1.713c0.413-0.142,0.808-0.336,0.66,0.414
						c-0.071,0.365,0.207,0.664,0.559,0.752c0.376,0.097,0.918,0.236,0.749-0.481c-0.066-0.28-0.53-0.551,0.017-0.792
						c0.393-0.17,0.657,0.069,0.869,0.352c0.246,0.327,0.473,0.666,0.708,0.999c0.489,0.08,1.297,0.241,1.236,0.588
						c-0.335,1.929,1.677,2.209,2.339,3.374c0.706,1.244,0.354,2.707,0.33,4.082c-0.001,0.093-0.174,0.227-0.152,0.223
						c1.22-0.189,1.507,0.724,1.921,1.494c0.052,0.191,0.061,0.387,0.03,0.583c-0.207,0.488-0.61,0.771-1.087,0.975
						c-0.185,0.069-0.376,0.114-0.571,0.145c-1.038,0.493-1.924-0.6-2.95-0.263c-0.762-1.182-2.134-1.883-2.703-3.218
						c0.31-0.283,0.574-0.183,0.828,0.087c0.012,0.012,0.012,0.418,0.205,0.048c0.122-0.234-0.046,0.079-0.039-0.204
						c-0.037-0.434-0.298-0.771-0.459-1.149c-0.705-1.663-0.559-1.858,1.424-2.026c-1.57-0.231-3.138,0.337-4.71,0.076L40,47.511z"
						/>
					<path id="Fill-32" fill="#E9E4E4" d="M73.941,112.494c-0.106,0.079-0.215,0.156-0.324,0.231
						c-0.179,0.358-0.453,0.3-0.738,0.195c-1.938-0.807-1.387-3.057-2.277-4.467c-0.107-0.137-0.212-0.281-0.318-0.418
						c-0.317-0.442-0.949-0.341-1.245-0.823c-0.038-0.19-0.035-0.378,0-0.57c0.052-0.355-0.135-0.979,0.035-1.025
						c2.566-0.687,1.058-3.276,1.953-4.788c0.711-1.203,0.8-2.712,2.532-1.184c0.488,0.43,1.326,0.024,1.932,0.412
						c0.447,0.443,0.609,1.119,1.088,1.543c0.117,0.143,0.209,0.3,0.283,0.471c0.092,0.278,0.131,0.562,0.139,0.855
						c-0.018,0.517-0.105,0.995-0.633,1.211c-0.289,0.039-0.56-0.021-0.814-0.168c-0.653-0.514-1.356-0.874-2.242-0.75
						c1.255,0.212,2.001,1.04,2.478,2.2c0.09,0.241,0.147,0.495,0.212,0.744c0.062,0.144,0.125,0.29,0.201,0.428
						c0.141,0.19,0.301,0.365,0.435,0.563c0.072,0.16,0.095,0.324,0.08,0.499c-0.056,0.356-0.134,0.706-0.262,1.043
						c-0.681,1.175-1.943-0.516-2.632,0.606c-0.018,0.118-0.197,0.122-0.168,0.276c0.129-0.122,0.273-0.202,0.459-0.158
						C75.506,110.54,74.069,111.476,73.941,112.494"/>
					<path id="Fill-34" fill="#D7D4D6" d="M29.256,44c0.524,0.006,1.025,0.246,1.155,0.725c0.567,2.075,2.224,3.3,3.503,4.758
						c1.07,1.215,1.404,2.271,0.755,3.712c-0.105,0.085-0.214,0.168-0.326,0.245c-1.014-0.899-1.047,2.277-2.252,0.591
						c-0.135,0.15,0.012,0.278,0.046,0.403c0.376,1.388-0.764,1.888-1.504,2.398c-0.772,0.532-1.325-0.315-1.787-0.932
						c-0.235-0.352-0.413-0.734-0.584-1.125c-0.312-0.706-0.251,0.055-0.373,0.119c-0.606,0.873-1.205,0.537-1.631-0.113
						c-0.738-1.121-0.769-2.529-1.22-3.775c-0.184-0.509,0.316-0.686,0.73-0.797c1.253-0.334,2.417-0.155,3.483,0.617
						c0.174,0.005,0.344,0.004,0.516-0.023c1.034-0.664,0.475-1.65,0.433-2.492C30.128,46.824,29.348,45.492,29.256,44"/>
					<path id="Fill-36" fill="#E1DDDD" d="M76.519,99.841c-0.64-0.036-1.351-0.262-1.903-0.072
						c-1.195,0.413-1.264-0.308-1.356-1.311c-0.63,0.838-1.525,1.264-0.853,2.253c0.126,0.186,0.061,0.447-0.176,0.459
						c-1.172,0.068-0.677,0.794-0.566,1.31c0.072,0.341-0.01,0.688,0.056,0.981c0.216,0.96,0.208,1.371-1.114,1.133
						c-1.437-0.258-0.249,1.011-0.691,1.404c-0.367-0.047-0.687-0.181-0.914-0.471c0.064-0.778,0.139-1.554,0.554-2.257
						c0.907-1.275,1.161-2.716,1.177-4.215c-0.082-0.413-0.003-0.792,0.263-1.135c1.186-0.812,0.79-2.019,0.866-3.108
						c0.193-1.575-0.055-3.222,0.842-4.683c0.184-0.101,0.378-0.144,0.589-0.129c0.536,0.385,0.671,0.941,0.725,1.529
						c-0.097,0.636-0.635,1.311,0.18,1.872c0.115,0.088,0.312,0.195,0.298,0.285c-0.395,2.839,2.35,3.153,3.943,4.39
						c0.402,0.432,0.792,0.874,1.232,1.275c0.135,0.155,0.24,0.326,0.317,0.514c0.157,1.371-0.983,2.302-1.376,3.498
						c-0.194,0.598-0.876,0.546-1.236-0.114c0.252-0.347,0.331-0.726,0.239-1.138c0.062-0.186,0.062-0.381,0.116-0.569
						c-0.082-0.113-0.162-0.227-0.244-0.339C76.905,100.915,76.58,100.459,76.519,99.841"/>
					<path id="Fill-38" fill="#E5E1E1" d="M76.619,103.537c0.246,0.145,0.742,0.275,0.756,0.129
						c0.119-1.352,1.441-2.229,1.559-3.564c0.344-0.383,1.855-0.105,0.76-1.324c-0.418-0.467-0.671-1.274,0.221-1.776
						c1.562-0.061,1.781,0.985,1.856,2.179c-0.155-1.309,0.363-1.918,1.678-1.928c0.415,0.172,0.657,0.483,0.812,0.864
						c0.192,0.506,0.161,1.048,0.366,1.569c0.839,2.111,0.36,2.649-2.406,2.619c0.671,0.185,1.262,0.223,1.522,0.767
						c0.016,0.372-0.219,0.6-0.517,0.792c-1.164,0.647-2.307,1.311-3.046,2.418c0.154,0.794-0.322,1.243-0.99,1.589
						c-0.953,0.149-1.905,0.266-2.803-0.218c-0.039-0.374,0.193-0.604,0.488-0.801c0.473-1.311-0.996-2.193-0.867-3.427
						L76.619,103.537"/>
					<path id="Fill-40" fill="#E5E2E3" d="M25.093,10.838c0.498-1.166-0.249-2.283-0.063-3.588c0.787,0.725,1.762,0.919,2.695,1.259
						c0.182-0.753-0.113-1.381-0.553-1.89c-0.567-0.663-0.77-1.158-0.272-2.092c0.606-1.133,1.241-0.199,1.877-0.327
						c0.107-0.536-0.369-0.795-0.529-1.2c0.988,0.092,1.506,0.83,1.979,1.633c0.04,1.217,0.908,2.221,0.754,3.504
						c-0.06,0.503,0.16,1.094-0.657,0.588c-0.027-0.015-1.189,0.475-0.333,1.178c0.432,0.355,0.465,0.784,0.382,1.42
						c-0.493-0.184-0.957-0.355-1.42-0.528c-1.183-0.444-1.226-0.399-1.227,1.205c-0.367,0.017-0.597-0.209-0.793-0.502
						c-0.383-0.573-0.616-0.187-0.853,0.157h0.001C25.85,11.246,25.443,11.082,25.093,10.838"/>
					<path id="Fill-42" fill="#D9D4D5" d="M71.843,14.601c1.407,0.709,1.407,0.709,0.662,2.069
						c-1.491-1.957-3.419-1.201-5.259-1.004c-0.404,0.043-0.586,0.342-0.654,0.741c-0.094,0.581-0.181,1.167-0.273,1.753
						c-1.236-0.602-2.742-0.254-3.678-1.413c-0.979,0.505,0.107,1.366-0.549,1.837c-0.502-0.372-0.293-1.274-0.969-1.574
						c-0.455-0.201-0.868-0.395-1.379-0.309c-0.746,0.127-0.443,0.694-0.53,1.176c-0.196,1.068-1.056,1.443-2.034,0.824
						c-0.594-0.373-0.977-0.66-1.542,0.026c-0.287,0.347-0.831,0.267-1.13-0.071c-0.434-0.487-1.005-0.427-1.508-0.625v-0.004
						c0.02-0.148,0.076-0.242,0.175-0.279c0.1-0.039,0.158-0.045,0.174-0.014c3.301-0.967,6.598-1.957,10.004-2.414
						c1.562,0.483,2.904-0.625,4.389-0.717c0.165-0.1,0.343-0.15,0.534-0.139l0.005,0.025
						C69.459,14.906,70.694,13.115,71.843,14.601"/>
					<path id="Fill-44" fill="#E7E3E3" d="M54.9,58.242c-0.153,0.364-0.202,0.887-0.477,1.065c-0.917,0.594-0.646,1.02-0.016,1.63
						c0.401,0.389,0.797,0.921-0.355,1.044c-0.572,0.061-0.706,0.836-0.678,1.479c0.021,0.523,0.443,0.989,0.195,1.538V65
						c-1.024-0.555-1.106-1.928-2.145-2.469c-0.73-0.486-0.889-1.355-1.358-2.016c-0.14-0.231-0.256-0.475-0.388-0.708
						c-1.034-1.833-1.037-1.83,1.054-2.682h0.002c0.63-0.029,1.076-0.334,1.348-0.901h0.001c0.276-0.398,0.518-0.189,0.756,0.035
						c0.021,0.461,0.237,0.209,0.417,0.104c1.043,0.047,1.722,0.479,1.742,1.621C54.968,58.069,54.934,58.156,54.9,58.242"/>
					<path id="Fill-46" fill="#DFDADB" d="M65,57c-0.995-0.131-1.559-1.551-2.833-0.922c-0.149,0.074-0.245-0.268-0.271-0.459
						c-0.118-0.859-0.92-1.035-1.481-1.502c-0.3,0.861,0.333,1.555,0.31,2.336c-1.924-0.139-3.113-1.637-4.647-2.492
						c-0.22-0.121,0.079-0.461,0.277-0.64c2.437,0.622,3.397-0.996,4.263-2.758c0.585-0.007,0.822-0.128,1.092-0.563
						c1.426,1.68,2.239,3.646,2.748,5.752C64.566,56.207,64.74,56.619,65,57"/>
					<path id="Fill-48" fill="#DCD9DB" d="M97.949,9.428c-0.659,0.121-1.416,0.094-0.943,1.171c0.624,1.423-0.767,2.214-1.265,3.271
						c-0.181,0.381-1.686-0.135-2.108-0.693c-0.244-0.316-0.317-0.672-0.387-1.074c-0.156-0.92-0.508-1.756-1.783-1.539
						c-0.432,0.072-0.75-0.227-1.004-0.557c-0.346-0.078-0.488-0.294-0.454-0.633c0.188,0.025,0.379,0.054,0.567,0.079
						c1.399,0.216,2.701-0.128,3.967-0.669C95.138,8.424,95.91,8.47,96.461,8c0.187,0.031,0.372,0.062,0.561,0.088
						c0.199,0.023,0.396,0.046,0.592,0.068C97.935,8.529,98.088,8.941,97.949,9.428"/>
					<path id="Fill-50" fill="#D7D3D4" d="M69.297,84.079c-0.819-1.553,0.307-2.976,0.41-4.469c0.052-0.738,1.062-1.2,1.931-0.865
						c0.817,0.312,1.017-0.318,1.47-0.573c1.023-0.495,0.96,0.184,0.803,0.723c-0.156,0.541-0.735,0.853-1.105,1.284
						c-0.512,0.6-1.123,1.167-0.562,2.023c0.076,0.184,0.127,0.372,0.16,0.566c0.041,0.294,0.047,0.591,0.066,0.887
						c0.1,1.164,0.773,2.18,0.998,3.307c0.161,0.817,0.122,0.824-0.832,1.038C71.631,86.611,70.764,85.124,69.297,84.079"/>
					<path id="Fill-52" fill="#E1DDDD" d="M70.551,107.134c0.991,0.093,0.908,0.986,0.924,1.645c0.027,1.338,0.497,2.354,1.51,3.097
						c0.065,0.438-0.083,0.832-0.227,1.224c-0.119,0.089-0.242,0.177-0.359,0.265c-0.277-0.053-0.549-0.048-0.805,0.095
						c-2.107,1.179-3.242,0.443-3.59-2.324H68c0.25-0.855,0.219-1.764,0.448-2.626C68.764,107.315,69.357,106.712,70.551,107.134"/>
					<path id="Fill-54" fill="#D6D1D3" d="M59.126,44.09l0.71,0.986c-0.264,1.068,0.983,1.428,1.164,2.291
						c-0.23,1.072-0.891,0.766-1.559,0.453c-0.4-0.291-0.659-0.66-0.678-1.195c-0.289,0.888-0.289,1.709,0.274,2.474
						c-0.294,1.124-1.09,0.977-1.95,0.719c-0.885-0.266-0.85-0.823-0.976-1.632c-0.317-2.034,0.194-4.035-0.047-6.042
						c-0.069-0.298-0.093-0.595-0.024-0.897c0.129-0.189,0.311-0.27,0.545-0.24C57.804,41.752,57.848,43.389,59.126,44.09"/>
					<path id="Fill-56" fill="#D9D5D7" d="M28.194,54.404c0.055-0.58,0.216-1.086,0.933-1.404c0.008,0.89,0.022,1.741,0.6,2.363
						c0.161,1.57,0.744,3.2-0.535,4.565c-0.097,0.089-0.197,0.176-0.301,0.255c-0.44,0.169-1.116-0.612-1.324,0.58
						c-0.208,1.174-1.028,1.512-2.059,1.017c-0.826-1.238-0.547-2.426,0.135-3.596c0.115-0.14,0.243-0.264,0.376-0.377
						c0.68-0.992-0.946-1.851-0.138-2.846c0.118-0.16,0.263-0.266,0.442-0.322c0.965,0.183,1.067,1.307,1.858,1.951
						C27.934,55.793,28.871,55.186,28.194,54.404"/>
					<path id="Fill-58" fill="#CBC5C7" d="M43.594,18.028c0.079,0.998,0.36,1.79,1.601,1.599c0.622,0.076,1.176,0.486,1.837,0.369
						c0.285,0.436,0.622,0.775,1.112,1.027c1.234,0.637,1.114,1.77-0.239,2.685c-0.624,0.112-0.197,1.049-0.867,1.126
						c-0.431,0.216-0.949,0.296-1.099-0.229C45.211,22.035,43.028,20.372,42,18C42.531,18.009,43.062,18.02,43.594,18.028"/>
					<path id="Fill-60" fill="#E1DCDD" d="M100.285,92c-0.218-0.195-0.605-0.326-0.271-0.723c0.291-0.345,1.133-0.436,0.709-1.106
						c-0.314-0.503-0.68-1.254-1.443-1.076c-1.307,0.302-1.212-0.593-1.272-1.324c-0.053-0.634,0.189-0.922,0.942-0.691
						c1.013,0.312,2.229,1.145,2.787,2.11c0.387,0.67,0.756,0.627,1.381,0.176c0.545-0.394,0.857-1.089,1.6-1.218
						c0.256-0.008,0.337,0.107,0.248,0.343c0.014,1.514-1.326,1.812-2.303,2.254C101.836,91.119,101.051,91.529,100.285,92"/>
					<path id="Fill-62" fill="#D4D0D3" d="M81.104,12.875c-0.413-0.604-0.99-0.655-1.648-0.539c-0.579,0.102-1.003,0.33-0.576,0.93
						c0.536,0.759-0.533,1.032-0.231,1.64c-0.687,0.052-0.521-0.468-0.71-0.694c-0.299-0.355-0.434-0.949-1.035-0.869
						c-0.594,0.08-0.711,0.587-0.707,1.1c0.003,0.707-0.482,0.593-0.845,0.457c-0.622-0.236-1.292-0.492-1.351-1.332
						c3.059-1.781,6.502-2.072,9.891-2.566c0.176,0.346,0.169,0.555-0.235,0.815c-0.988,0.636-0.963,0.676-0.687,1.896
						c-0.843,0.208-0.947-1.264-1.869-0.836H81.104z"/>
					<path id="Fill-64" fill="#D8D3D5" d="M82,82.764c-0.606,0.355-1.162,0.312-1.701-0.148c-0.418-0.356-0.732-0.292-0.818,0.278
						c-1.215,0.399-1.146-1.316-2.211-1.154c-2.166,0.713-2.329,0.634-3.989-1.916c-0.038-0.611-0.663-1.247,0.086-1.824
						c0.125,0.16,0.255,0.46,0.377,0.457c1.954-0.064,3.287,1.127,4.781,2.002c0.212,0.125,0.546,0.069,0.823,0.096
						C80.008,81.525,80.646,82.518,82,82.764"/>
					<path id="Fill-66" fill="#E5E1E1" d="M72.604,87.299c0.787-0.089,0.417-0.583,0.314-0.981
						c-0.301-1.171-1.168-2.191-0.848-3.526c0.023-0.19,0.097-0.37,0.11-0.562c0.149-0.303,0.382-0.247,0.622-0.16
						c0.143,0.084,0.273,0.187,0.394,0.302c0.237,0.232,0.478,0.46,0.702,0.707c0.103,0.136,0.186,0.284,0.255,0.441
						c0.302,0.794,0.815,1.545,0.495,2.479c-0.024,0.174-0.055,0.349-0.08,0.525c-0.18,0.965,0.945,1.866,0.135,2.862
						c-0.428,0.32-0.961,0.228-1.429,0.389c-0.11,0.076-0.218,0.15-0.327,0.226c-0.352-0.1-0.492-0.349-0.461-0.72
						C72.456,88.615,72.216,87.937,72.604,87.299"/>
					<path id="Fill-68" fill="#CFCCCE" d="M14.623,74.238c-0.024-0.511,0.432-1.023,0-1.534c-0.249-0.876,0.36-0.989,0.974-1.101
						c0.75,1.331,1.227,0.39,1.743-0.207c0.82-1.067-0.505-1.856-0.363-2.837c0.396-1.089-1.356-1.419-0.884-2.559
						c0.413,0.264,0.823,0.525,1.233,0.788c0.224,0.019,0.301,0.137,0.237,0.353c-0.224,1.25,1.194,1.804,0.933,3.035
						c1.445-0.37,0.886-1.723,1.667-2.216c0.281,0.158,0.559,0.315,0.837,0.473c-1.109,1.767-2.283,3.442-4.089,4.631
						C15.81,73.786,14.963,74.857,14.26,76c-0.237-0.007-0.318-0.113-0.218-0.339C13.942,75.067,14.728,74.833,14.623,74.238"/>
					<path id="Fill-70" fill="#CECACB" d="M7.232,64.994C7.154,64.885,7.078,64.775,7,64.666c1.43-1.977,2.959-3.885,3.854-6.189
						c0.332-0.85,0.793-1.692,1.619-2.243c0.042-0.078,0.086-0.155,0.128-0.234c0.089,0.008,0.181,0.016,0.273,0.025
						c0.184,0.364-0.569,1.157,0.202,1.097c1.357-0.106,0.91,0.377,0.582,1.033c-0.101,0.201,0.01,0.504,0.024,0.762
						c-1.937-0.654-2.017-0.68-2.579,0.994c-0.205,0.614-1.183,0.82-0.824,1.65c-0.036,0.174-0.07,0.351-0.103,0.525
						C9.574,63.42,9.347,65.114,7.232,64.994"/>
					<path id="Fill-72" fill="#D1CDD0" d="M85.018,22c-0.029-0.739-0.15-1.379,1.048-1.48c0.812-0.07,1.644-0.355,2.317-1.25
						c0.472-0.623,1.697-1.261,2.588-1.437c1.186-0.237,2.12-0.69,2.994-1.386c0.524-0.416,1.236,0.02,1.719-0.447
						c0.175,0.068,0.28,0.191,0.316,0.373c-0.093,0.162-0.231,0.241-0.426,0.227c-3.281,1.533-6.182,3.775-9.688,4.89
						C85.573,21.589,85.307,21.827,85.018,22"/>
					<g id="Group-76" transform="translate(0.000000, 77.000000)">
						<g id="Clip-75">
						</g>
						<defs>
							<filter id="Adobe_OpacityMaskFilter_1_" filterUnits="userSpaceOnUse">
								<feColorMatrix  type="matrix" values="1 0 0 0 0  0 1 0 0 0  0 0 1 0 0  0 0 0 1 0"/>
							</filter>
						</defs>
						<mask maskUnits="userSpaceOnUse" id="mask-4">
							<g filter="url(#Adobe_OpacityMaskFilter_1_)">
								<polygon id="path-3" fill="#FFFFFF" points="0,0.388 5.654,0.388 5.654,7.604 0,7.604 								"/>
							</g>
						</mask>
						<path id="Fill-74" mask="url(#mask-4)" fill="#C9C6C9" d="M1.104,0.388c0.38,0.76,0.761,1.521,1.148,2.297
							c-0.588,0.258-1.157-0.68-1.564,0.104C0.411,3.317,0.862,3.675,1.172,4.024c0.75,0.841,1.516,0.429,2.165-0.203
							c0.441,0.737-0.192,0.992-0.345,1.396C2.544,6.412,3.195,7.112,4.599,6.975C5.05,6.93,5.635,6.509,5.654,7.379
							C5.532,7.431,5.413,7.483,5.293,7.536C5.089,7.482,4.88,7.455,4.667,7.467C4.532,7.516,4.393,7.615,4.265,7.604
							C2.06,7.421-0.471,4.432,0.075,2.523C0.283,1.792,0.297,0.908,1.104,0.388"/>
					</g>
					<path id="Fill-77" fill="#CECACC" d="M29,60c0.019-1.107,1.089-2.174,0.096-3.352c-0.115-0.135,0.313-0.695,0.491-1.059
						c0.442,0.457,0.602,1.394,1.595,0.926c0.728-0.344,1.286-1.695,1.022-2.375c-0.14-0.361-0.585-0.613-0.418-1.119
						c1.081-0.176,0.935,0.771,1.303,1.377c0.654-0.188,0.683-2.063,1.912-0.793C33,55.736,31,57.868,29,60"/>
					<path id="Fill-79" fill="#D2CDCE" d="M42,17.828c-0.944,0.488-1.491-0.16-2.07-0.724c-0.037-0.682-0.37-1.163-0.978-1.459
						l-0.001-0.002c-0.182-0.052-0.26-0.173-0.244-0.358v-0.002c0.094-0.342-0.204-0.623-0.146-0.957
						c-0.941-0.437-1.23-2.164-2.821-1.363c-0.461,0.233-0.497-0.386-0.641-0.676c-0.338-0.67,0.282-0.395,0.519-0.538
						c0.241-0.145,0.476-0.666,0.35-0.692c-1.787-0.36-0.409-1.359-0.446-2.057C37.421,12.133,39.839,14.887,42,17.828"/>
					<path id="Fill-81" fill="#DEDADA" d="M76.504,108.129c0.848-0.122,1.7-0.291,2.496,0.21c-0.454,0.679-1.116,1.141-1.714,1.667
						c-0.981,0.172-1.661,0.81-2.29,1.526c-0.219,0.155-0.439,0.312-0.66,0.468c-0.401-0.614,0.05-1.083,0.262-1.592
						c0.258-0.617,0.082-0.982-0.598-1.058h0.003c0.337-1.332,0.754-1.58,1.742-0.958C76.178,108.662,76.415,108.715,76.504,108.129
						"/>
					<path id="Fill-83" fill="#CECACC" d="M75.553,26c0.288,0.242,0.741,0.463,0.18,0.871c-0.478,0.348-0.969,0.679-1.455,1.018
						C71.122,29.119,68.325,31.146,65,32c0.42-1.072,1.721-1.414,2.119-2.513c0.066-0.185,0.319-0.31,0.518-0.208
						c1.956,0.989,3.188-0.797,4.777-1.206C72.992,26.686,74.318,26.411,75.553,26"/>
					<path id="Fill-85" fill="#CECACC" d="M42,50.855c0.607-0.34,1.17-0.773,1.997-0.426c0.415,0.176,0.918,0.174,1.25-0.098
						c0.922-0.758,1.585-0.015,2.35,0.225c0.482,0.152,0.48,0.395,0.269,0.716c-0.188,0.28-0.392,0.544-0.844,0.376
						c-0.129-0.049-0.229-0.152-0.35-0.223c-0.373-0.215-0.789-0.434-1.147-0.047c-0.281,0.304,0.072,0.572,0.223,0.842
						c0.317,0.563,1.25,1.045,0.339,1.779c-0.441-0.533-1.236-0.799-1.513-1.436c-0.107-0.024,0.143-0.264-0.174-0.189
						c-0.378,0.177-0.754,0.129-1.132,0.047c-0.18-0.203-0.356-0.406-0.537-0.611c0.196-0.414-0.044-0.584-0.491-0.641
						C42.148,51.07,42.069,50.965,42,50.855"/>
					<path id="Fill-87" fill="#D4D1D3" d="M97.457,9.426c-0.275-0.391-0.63-0.764-0.361-1.281l3.414-1.095
						c0.233-0.09,0.444-0.058,0.635,0.093c0.076,0.102,0.145,0.206,0.206,0.313c1.439,1.232,3.993,1.661,3.61,4.204l-0.002-0.008
						c-0.035,0.14-0.109,0.236-0.225,0.289c-0.121,0.055-0.189,0.07-0.205,0.05c-1.52-0.399-1.893-2.116-3.502-2.491
						c-1.072-0.252-2.037-1.003-3.203-0.297c-0.033,0.115-0.1,0.188-0.197,0.215S97.473,9.448,97.457,9.426"/>
					<path id="Fill-89" fill="#D8D3D5" d="M16.445,49.801c0.357-0.094,0.714-0.117,0.866-0.598c0.212-0.668,0.456-1.354,1.199-1.631
						c0.265-0.1,0.399-0.258,0.303-0.577c-0.422-1.371,0.557-2.126,1.271-2.995c0.81,0.216,0.889,0.879,0.917,1.571
						c-0.021,0.19-0.107,0.349-0.243,0.478c-0.532,0.16-0.889,0.467-0.854,1.097c0.089,1.626-0.769,2.587-2.136,3.186
						c-0.107,0.075-0.213,0.149-0.32,0.221c-0.369,0.288-0.749,0.542-1.249,0.414c-0.16-0.116-0.223-0.272-0.189-0.469
						C16.001,50.164,16.21,49.973,16.445,49.801"/>
					<path id="Fill-91" fill="#DCD7D8" d="M83.426,103c-0.417-0.124-0.848-0.217-1.249-0.381c-0.426-0.172-1.3,0.02-1.162-0.644
						c0.166-0.812,0.809-0.13,1.249-0.104c0.291,0.017,0.592,0.032,0.877-0.012c1.175-0.172,1.469-0.684,0.882-1.718
						c-0.366-0.642-0.76-1.217-0.271-1.937c0.236-0.222,0.598-0.299,0.749-0.05c0.952,1.551,2.651,2.536,3.499,4.158
						c-0.016,0.109-0.033,0.217-0.048,0.328c-0.293-0.035-0.59-0.042-0.87-0.11c-0.723-0.177-0.803-1.417-1.673-1.125
						c-0.629,0.212-1.089,0.88-1.627,1.344C83.673,102.843,83.544,102.917,83.426,103"/>
					<path id="Fill-93" fill="#D6D3D5" d="M7.447,65c-0.155,0.938,1.135,1.871,0.637,2.54C7.27,68.63,9.895,68.65,8.668,69.548
						c-1.602-0.67-1.602-0.67-3.415,0.452c-0.809-0.663,0.631-1.308,0.022-1.969C5.828,66.936,6.454,65.876,7.447,65"/>
					<path id="Fill-95" fill="#E1DCDD" d="M94.777,91c0.375,0.629,1.262,0.627,1.721,1.312c0.562,0.841,1.605,0.31,2.449,0.074
						c0.018,0.055,0.07,0.13,0.047,0.163c-0.077,0.104-0.182,0.193-0.273,0.288c-1.201,1-2.844,1.261-4.178,2.043
						c-0.195-0.043-0.395-0.062-0.594-0.091c-0.114,0.071-0.226,0.141-0.342,0.212c-0.202-0.036-0.404-0.071-0.607-0.107
						c0.118-0.073,0.238-0.146,0.355-0.217c0.035-0.172,0.104-0.333,0.199-0.483c0.182-0.203,0.4-0.369,0.617-0.533
						c0.494-0.369,0.266-0.792,0.141-1.227C94.151,91.886,93.944,91.296,94.777,91"/>
					<g id="Group-99" transform="translate(103.000000, 83.000000)">
						<g id="Clip-98">
						</g>
						<defs>
							<filter id="Adobe_OpacityMaskFilter_2_" filterUnits="userSpaceOnUse">
								<feColorMatrix  type="matrix" values="1 0 0 0 0  0 1 0 0 0  0 0 1 0 0  0 0 0 1 0"/>
							</filter>
						</defs>
						<mask maskUnits="userSpaceOnUse" id="mask-6">
							<g filter="url(#Adobe_OpacityMaskFilter_2_)">
								<polygon id="path-5" fill="#FFFFFF" points="0.54,0.886 3.799,0.886 3.799,4.759 0.54,4.759 								"/>
							</g>
						</mask>
						<path id="Fill-97" mask="url(#mask-6)" fill="#DCD7D7" d="M2.564,4.759C2.477,4.634,2.389,4.511,2.299,4.386
							c0.18-0.743-0.643-1.222-0.438-2.08c0.172-0.71-1.193-0.512-1.321-1.3c0.273-0.03,0.547-0.063,0.821-0.088
							C2.219,0.834,3.066,0.854,3.52,1.739c0.499,0.968,0.32,1.867-0.477,2.625C2.895,4.506,2.727,4.627,2.564,4.759"/>
					</g>
					<path id="Fill-100" fill="#DFDADB" d="M51,56.85c-0.642,0.185-0.784,1.084-2.007,0.739c0.853,0.88,1.825,1.379,1.324,2.411
						c-1.383-0.676-2.007-1.813-2.316-3.14c0.276-0.231,0.116-1.258,0.702-0.692C49.437,56.877,50.282,56.538,51,56.85"/>
					<path id="Fill-102" fill="#CCC9CB" d="M104.574,11.858c0.135-0.085,0.271-0.17,0.404-0.255
						c0.072,0.506-0.023,0.896-0.508,1.145c-1.422,0.734-2.832,1.5-4.245,2.252c-0.082-0.113-0.162-0.23-0.237-0.35
						c0.23-1.295-1.02-2.068-0.988-3.293c0.121-0.084,0.239-0.172,0.357-0.258c0.564,0.055,1.291-0.342,1.672,0.15
						C102.088,12.627,103.345,12.024,104.574,11.858"/>
					<path id="Fill-104" fill="#CECACC" d="M25.085,62.053c1.797-0.282,2.026-0.554,2.473-3.053c0.582,0.51,0.622,1.421,1.442,1.59
						c-1.189,1.16-1.927,2.776-3.648,3.41c-0.078-0.033-0.153-0.064-0.229-0.098c-0.076-0.145-0.106-0.298-0.083-0.459
						c0.049-0.232,0.078-0.463,0.007-0.699C24.986,62.511,24.971,62.278,25.085,62.053"/>
					<path id="Fill-106" fill="#D8D3D5" d="M71,107.532c-1.414,0.086-1.774,1.043-2.078,1.946c-0.181,0.542-0.01,1.176-0.732,1.521
						c-0.354-1.697-0.214-3.362,0.438-4.994c0.444-0.043,0.732,0.16,0.966,0.448c-0.124,0.073-0.246,0.146-0.372,0.217
						c0.115,0.991,1.392-0.416,1.524,0.537C70.828,107.316,70.914,107.425,71,107.532"/>
					<path id="Fill-108" fill="#D8D3D5" d="M68.279,112c0.164,1.151,1.922,1.312,2.025,2.427c1.033-0.119,1.469-1.563,2.695-0.594
						c-1.076,0.504-1.926,1.523-3.437,1.041c-0.556-0.031-0.952-0.384-1.464-0.5C68.084,113.578,67.795,112.769,68.279,112"/>
					<path id="Fill-110" fill="#CCC9CB" d="M104.412,12c-0.602-1.245-0.889-2.707-2.45-3.215C101.547,8.65,101.316,7.89,101,7.417
						c0.235-0.139,0.469-0.278,0.701-0.417c0.17,0.023,0.262,0.125,0.282,0.301c0.394,0.774,0.976,1.271,1.817,1.389
						c0.396,0.605,0.791,1.209,1.189,1.812C105.038,11.105,104.928,11.639,104.412,12"/>
					<path id="Fill-112" fill="#CDC9CC" d="M60.378,34c-0.905-1.425-0.011-2.211,0.876-3c0.888,0.59,1.755,1.175,2.826,0.398
						c0.364-0.262,0.676,0.08,0.92,0.396c-0.113,0.088-0.229,0.17-0.35,0.244c-0.209-0.021-0.417-0.041-0.628-0.061
						C62.906,32.871,61.445,33.004,60.378,34"/>
					<path id="Fill-114" fill="#DAD6D7" d="M56.189,36c-0.617-1.094-0.924-2.467-1.994-3.158c-0.186-0.119-0.284-0.301-0.088-0.501
						c0.143-0.146,0.44-0.376,0.473-0.337c0.662,0.812,1.691,0.916,2.339,1.696c0.161,0.194,0.031,0.737,0.036,1.12
						C56.568,35.094,56.423,35.587,56.189,36"/>
					<path id="Fill-116" fill="#CDC9CB" d="M2.788,74.908C2.548,75.294,2.392,75.761,2,76c0.148-1.587,0.964-2.786,1.754-4
						c0.287,0.04,0.583,0.038,0.853,0.134c0.218,0.079,0.435,0.301,0.386,0.598c-0.054,0.306-0.352,0.277-0.559,0.358
						C3.839,73.643,3.617,74.638,2.788,74.908"/>
					<path id="Fill-118" fill="#D2CDCC" d="M72.215,90c0.2,0.23,0.398,0.459,0.598,0.689c-0.457,0.712-0.59,1.463-0.535,2.253
						c0.052,0.717-0.112,1.415-0.562,2.058c-0.104-0.025-0.208-0.048-0.31-0.074c0.008-0.082,0.018-0.165,0.021-0.249
						c-0.079-0.108-0.159-0.216-0.239-0.326c0.029-0.179,0.06-0.358,0.09-0.538c0.138-1.007,0.275-2.011,0.412-3.018
						c0.071-0.174,0.138-0.351,0.16-0.534C71.977,90.179,72.1,90.093,72.215,90"/>
					<path id="Fill-120" fill="#D4CED0" d="M70.397,100c0.25-0.001,0.612,0.073,0.569,0.225c-0.328,1.193-0.695,2.38-1.111,3.556
						c-0.086,0.251-0.492,0.263-0.822,0.152h-0.004c0.084-0.172,0.082-0.354,0.128-0.533c0.068-0.173,0.09-0.354,0.132-0.532
						L70.397,100z"/>
					<path id="Fill-122" fill="#C3BEC0" d="M44,51.396c0.398-0.328,0.887-0.297,1.344-0.396h0.002
						c0.385,0.885,1.585,1.185,1.518,2.395c0.048,0.137,0.16,0.293,0.133,0.408c-0.084,0.33-0.271,0.182-0.389,0.022
						c-0.263-0.345-0.503-0.714-0.982-0.722C45.163,52.449,44.31,52.217,44,51.396"/>
					<path id="Fill-124" fill="#CDC9CB" d="M5.282,68c0.712,0.008,0.821,0.45,0.643,1.054c-0.143,0.49-0.728,0.745-0.666,1.356
						l-0.12,0.665C4.835,71.299,4.598,71.565,4.637,72C4.428,71.957,4.212,71.911,4,71.867C4.537,70.617,4.341,69.096,5.282,68"/>
					<path id="Fill-126" fill="#CBC7C8" d="M67.991,14.396c-1.472,0.883-3.216,0.639-4.683,1.568
						c-0.212,0.134-0.366-0.139-0.288-0.383c0.067-0.209,0.239-0.372,0.37-0.557c1.477-0.229,2.867-0.963,4.373-1.025
						C67.957,14.041,68.026,14.178,67.991,14.396"/>
					<path id="Fill-128" fill="#C6C1C1" d="M15.648,51c0.104,0.145,0.208,0.289,0.312,0.434c0.082,0.234,0.039,0.438-0.135,0.611
						c-1.14,1.125-1.274,2.961-2.596,3.955h0.002c-0.188-0.044-0.268-0.158-0.216-0.36C13.898,54.097,14.557,52.418,15.648,51"/>
					<path id="Fill-130" fill="#C2BCBE" d="M59,44c-0.801-0.114-0.941-0.936-1.363-1.451c-0.425-0.521-0.574-1.33-1.365-1.457
						c-0.369-0.248-0.314-0.561-0.115-0.891c0.105-0.069,0.21-0.137,0.316-0.201c0.478,0.032,0.486,0.71,0.938,0.775
						C57.695,41.988,58.402,42.963,59,44"/>
					<path id="Fill-132" fill="#D6D1D3" d="M62,50.015c-0.007,0.847-0.389,1.065-1.057,0.798c-0.93,0.572-0.865-0.297-0.933-0.859
						c-0.066-0.562,0.187-1.082,0.321-1.615c0.084-0.24,0.24-0.359,0.472-0.334C61.202,48.673,61.602,49.343,62,50.015"/>
					<path id="Fill-134" fill="#C2BCC0" d="M13.82,75c0.062,0.107,0.121,0.216,0.18,0.326c-0.409,0.324-0.71,0.755-0.927,1.269
						c-0.311,0.062-0.642,0.853-0.913,0.042c-0.125-0.373-0.441-1.042,0.427-1.074C13.003,75.548,13.41,75.199,13.82,75"/>
					<path id="Fill-136" fill="#CCC8CB" d="M94,8.395c-1.262,1.488-2.14,1.672-4,0.84c0.724-0.188,1.447-0.38,2.172-0.57
						c0.33,0.125,0.596-0.235,0.918-0.176c0.114-0.076,0.228-0.147,0.346-0.216c0.188,0.032,0.377,0.07,0.562,0.118L94,8.395z"/>
					<path id="Fill-138" fill="#CECACD" d="M77,26c0.324-2.018,0.324-2.018,2-1.996c-0.092,0.599-0.566,0.66-0.816,1.018
						C77.79,25.348,77.394,25.674,77,26"/>
					<path id="Fill-140" fill="#CBC8C8" d="M72.598,14.614c-0.734-0.538-1.484-0.286-2.207-0.002
						c-0.498,0.196-0.945,0.21-1.391-0.122c1.193-0.773,2.582-0.674,3.82-1.242C73.133,13.795,73.023,14.24,72.598,14.614"/>
					<path id="Fill-142" fill="#DCD9DB" d="M97.131,15.334c0.271-0.256,0.56-0.447,0.685-0.912c0.235-0.871,0.685-0.141,0.946-0.033
						c0.476,0.196,0.123,0.508-0.062,0.749c-0.546,0.306-0.947,1.042-1.672,0.821C96.935,15.723,97.101,15.543,97.131,15.334"/>
					<path id="Fill-144" fill="#C9C4C7" d="M26,25.189c0.215-0.125,0.538-0.311,0.66-0.08c0.467,0.896,0.861,1.84,1.34,2.891
						c-0.557-0.104-0.646-0.479-0.854-0.707L26,25.189"/>
					<path id="Fill-146" fill="#D4D0D1" d="M80,106c0.396-1.226,1.508-1.788,3-2C82.187,104.838,81.142,105.464,80,106"/>
					<path id="Fill-148" fill="#CECBCC" d="M71.371,95.018c0.537,0.73,0.334,1.502,0.102,2.236
						c-0.124,0.394-0.346,0.924-1.184,0.687c0.449-0.868,0.691-1.767,0.678-2.705c0.025-0.123,0.096-0.195,0.207-0.218
						c0.115-0.025,0.183-0.023,0.205,0.001L71.371,95.018z"/>
					<path id="Fill-150" fill="#CECACC" d="M23.001,66c-0.044-0.952,0.842-1.33,1.604-1.783c0.015-0.129,0.074-0.2,0.178-0.211
						c0.1-0.013,0.163-0.004,0.187,0.025l0.017,0.004C25.152,65.264,23.747,65.404,23.001,66"/>
					<path id="Fill-152" fill="#DCD7D8" d="M89.756,101c0.575,1.593,0.166,2.108-1.573,1.981l0.002-0.092
						c-0.657-1.2,0.601-1.373,1.258-1.869C89.547,101.012,89.652,101.005,89.756,101"/>
					<path id="Fill-154" fill="#CCC8CB" d="M89.582,9.285c0.14,0.266,0.28,0.531,0.418,0.796c-0.886,0.224-1.768,0.562-2.66,0.63
						c-0.671,0.053-0.16-0.406-0.051-0.656C88.053,9.797,88.818,9.541,89.582,9.285"/>
					<path id="Fill-156" fill="#C9C2C2" d="M61,47.741c-0.115,0.091-0.234,0.177-0.355,0.259c-0.232-0.014-0.326-0.135-0.259-0.375
						c-0.573-0.779-1.98-1.172-1.107-2.625C59.854,45.914,60.427,46.826,61,47.741"/>
					<path id="Fill-158" fill="#C8C4C6" d="M9,81c0.278-1.065,0.542-2.145,2-1.984C10.384,79.731,9.875,80.557,9,81"/>
					<path id="Fill-160" fill="#DCD9DB" d="M95.535,16.615c-0.096-0.139-0.191-0.279-0.286-0.42
						c-0.075-0.559-0.079-1.035,0.69-1.174c0.704-0.126,0.746,0.314,0.844,0.756c-0.16,0.333-0.59,0.516-0.554,0.958
						c-0.142,0.087-0.282,0.177-0.423,0.265C95.571,16.969,95.473,16.846,95.535,16.615"/>
					<path id="Fill-162" fill="#CDC8C8" d="M75,112c0.2-1.106,1.104-1.292,1.611-1.998c0.021-0.028,0.254,0.198,0.389,0.305
						C76.334,110.871,75.666,111.435,75,112"/>
					<path id="Fill-164" fill="#EBE8E8" d="M52,62c1.147,0.455,1.301,2.035,2,3C52.853,64.543,52.698,62.963,52,62"/>
					<path id="Fill-166" fill="#C5BFC3" d="M24.051,22c1.148,0.213,1.518,1.111,1.868,1.85c0.16,0.344-0.376,0-0.594-0.068
						C24.901,23.188,24.476,22.594,24.051,22"/>
					<path id="Fill-168" fill="#C8C5C6" d="M23.351,20.482c0.37-0.182,0.756-0.368,1.09,0.025c0.43,0.507,0.122,0.879-0.274,1.217
						C23.893,21.311,23.623,20.896,23.351,20.482"/>
					<g id="Group-172" transform="translate(68.000000, 113.000000)">
						<g id="Clip-171">
						</g>
						<defs>
							<filter id="Adobe_OpacityMaskFilter_3_" filterUnits="userSpaceOnUse">
								<feColorMatrix  type="matrix" values="1 0 0 0 0  0 1 0 0 0  0 0 1 0 0  0 0 0 1 0"/>
							</filter>
						</defs>
						<mask maskUnits="userSpaceOnUse" id="mask-8">
							<g filter="url(#Adobe_OpacityMaskFilter_3_)">
								<polygon id="path-7" fill="#FFFFFF" points="0.447,0.388 1.947,0.388 1.947,1.5 0.447,1.5 								"/>
							</g>
						</mask>
						<path id="Fill-170" mask="url(#mask-8)" fill="#B7B1B1" d="M0.58,0.811c0.531-0.121,0.931,0.078,1.233,0.51
							C1.153,1.754,0.848,1.331,0.58,0.811"/>
					</g>
					<path id="Fill-173" fill="#C3BEC0" d="M42.342,50.689c0.464-0.248,0.994-0.42,1.254,0.174c0.264,0.607-0.378,0.528-0.698,0.676
						L42.342,50.689z"/>
					<path id="Fill-175" fill="#D6D1D3" d="M56.896,40.958c-0.664,0-0.91-0.542-1.246-0.964c-0.185-0.318-0.366-0.637-0.547-0.952
						C56.116,39.29,56.364,40.256,56.896,40.958"/>
					<path id="Fill-177" fill="#C4BFC2" d="M8.986,82.343c-0.232,0.054-0.462,0.108-0.696,0.162c0.01-0.144-0.016-0.304,0.038-0.426
						c0.316-0.7,0.802-0.724,1.382-0.32C9.468,81.953,9.226,82.147,8.986,82.343"/>
					<path id="Fill-179" fill="#D8D3D5" d="M73.53,113.685c-0.112-0.498-0.015-0.952,0.274-1.37
						c0.237,0.044,0.474,0.086,0.709,0.128C74.538,113.135,74,113.383,73.53,113.685"/>
					<path id="Fill-181" fill="#D1CDD0" d="M96.625,16.624c-0.537-0.733-0.008-0.868,0.554-0.981
						c0.142-0.086,0.282-0.175,0.42-0.267c-0.048,0.246-0.097,0.49-0.144,0.735C97.177,16.282,96.902,16.454,96.625,16.624"/>
					<path id="Fill-183" fill="#DCD7D8" d="M88.904,99.228c0.2,0.282,0.396,0.564,0.596,0.846c-0.031,0.234-0.063,0.466-0.096,0.698
						l-0.07-0.006C88.619,100.412,88.104,100.004,88.904,99.228"/>
					<path id="Fill-185" fill="#DCD9DB" d="M93.561,8.896c-0.343,0.254-0.703,0.401-1.121,0.176
						C92.788,8.855,93.15,8.726,93.561,8.896"/>
					<path id="Fill-187" fill="#C8C5C6" d="M22.695,19.594c0.6,0.004,0.738,0.293,0.496,0.812
						C23.025,20.134,22.861,19.863,22.695,19.594"/>
					<path id="Fill-189" fill="#F4F4F4" d="M97.344,8.057c-0.228-0.039-0.458-0.074-0.688-0.113
						C96.886,7.982,97.116,8.018,97.344,8.057"/>
					<path id="Fill-191" fill="#DCD9DB" d="M94.344,9.059c-0.228-0.041-0.458-0.078-0.688-0.117
						C93.886,8.98,94.116,9.018,94.344,9.059"/>
					<path id="Fill-193" fill="#E2DDDE" d="M96.074,16.802c0.09,0.132,0.18,0.265,0.271,0.396c-0.229-0.022-0.462-0.048-0.691-0.07
						C95.794,17.02,95.934,16.912,96.074,16.802"/>
					<path id="Fill-195" fill="#E2DDDE" d="M68.923,15.205c-0.086-0.141-0.178-0.275-0.274-0.41c0.232,0.036,0.469,0.07,0.703,0.104
						C69.209,15.001,69.064,15.104,68.923,15.205"/>
					<path id="Fill-197" fill="#E2DDDE" d="M63.652,31.969c0.231,0.02,0.462,0.043,0.695,0.062
						C64.114,32.012,63.884,31.988,63.652,31.969"/>
					<path id="Fill-199" fill="#E2DDDE" d="M53.354,17.876c-0.14,0.11-0.282,0.218-0.424,0.33c-0.092-0.14-0.186-0.278-0.284-0.412
						C52.884,17.822,53.118,17.848,53.354,17.876"/>
					<path id="Fill-201" fill="#E5E1E1" d="M94.652,94.94c0.231,0.04,0.464,0.08,0.695,0.12C95.116,95.02,94.884,94.98,94.652,94.94
						"/>
					<path id="Fill-203" fill="#E0DCDD" d="M19.072,8.346c-0.092-0.14-0.184-0.279-0.278-0.416c0.136-0.096,0.272-0.188,0.412-0.275
						L19.072,8.346z"/>
					<path id="Fill-205" fill="#D9D5D7" d="M12.993,55.664c0.078,0.141,0.164,0.275,0.254,0.408
						c-0.164,0.088-0.328,0.176-0.494,0.264C12.833,56.111,12.913,55.889,12.993,55.664"/>
					<path id="Fill-207" fill="#D7D4D6" d="M4.643,83.957c0.238,0.028,0.476,0.058,0.714,0.086
						C5.119,84.015,4.881,83.985,4.643,83.957"/>
					<path id="Fill-209" fill="#D8D3D5" d="M16.083,48.652c-0.054,0.231-0.11,0.461-0.166,0.695
						C15.973,49.113,16.029,48.884,16.083,48.652"/>
					<path id="Fill-211" fill="#D8D3D5" d="M17.101,48.648c-0.066,0.234-0.134,0.469-0.202,0.703
						C16.967,49.117,17.033,48.883,17.101,48.648"/>
					<path id="Fill-213" fill="#E1DDDD" d="M69.062,102.65c-0.041,0.234-0.084,0.466-0.125,0.7
						C68.979,103.116,69.021,102.884,69.062,102.65"/>
					<path id="Fill-215" fill="#E1DDDD" d="M69.066,102.65c-0.043,0.234-0.088,0.466-0.133,0.7
						C68.979,103.116,69.023,102.884,69.066,102.65"/>
					<path id="Fill-217" fill="#E1DDDD" d="M71.206,95.07c-0.138,0.09-0.278,0.184-0.412,0.28c0.036-0.234,0.078-0.466,0.118-0.7
						C71.008,94.79,71.107,94.93,71.206,95.07"/>
					<path id="Fill-219" fill="#E1DDDD" d="M71.045,93.651c-0.031,0.232-0.061,0.464-0.09,0.698
						C70.984,94.115,71.014,93.883,71.045,93.651"/>
					<path id="Fill-221" fill="#E0DCDD" d="M19.903,13.775c0.096,0.148,0.192,0.297,0.286,0.446
						C19.825,14.246,19.713,14.107,19.903,13.775"/>
					<path id="Fill-223" fill="#E1DDDD" d="M72.08,89.654c-0.053,0.23-0.107,0.46-0.16,0.692
						C71.973,90.114,72.027,89.884,72.08,89.654"/>
					<path id="Fill-225" fill="#DCD9DB" d="M104,11.813c-0.429,0.325-0.856,0.655-1.287,0.976c-0.45,0.336-1.073,0.265-1.208-0.166
						c-0.392-1.254-1.46-1.031-2.191-1.52c0.385-0.346,1.124-0.61,0.219-1.242c0.034-0.205,0.13-0.459-0.222-0.366
						C98.762,9.588,98.549,8.783,98,8.88c0.019-0.651,0.39-0.95,0.886-0.866c0.869,0.148,1.927,0.002,2.453,0.977
						c0.421,0.785,1.584,0.25,1.62,1.123C103,11.055,103.689,11.232,104,11.813"/>
					<path id="Fill-227" fill="#DAD5D7" d="M51.319,21.079c-0.207,0.192-0.44,0.394-0.395,0.704
						c0.066,0.485,0.294,1.071-0.396,1.203c-0.518,0.1-0.948-0.359-1.117-0.785c-0.15-0.386-0.118-0.752-0.636-0.921
						c-1.139-0.372-0.746-1.174-0.533-2.003c0.268-1.058,1.07-0.951,1.628-0.686c1.195,0.568,1.918-0.754,2.964-0.575
						c0.2,0.399,0.32,0.858-0.251,0.96C51.324,19.199,51.146,20.012,51.319,21.079"/>
					<path id="Fill-229" fill="#DAD6D7" d="M76,25.755c-0.306,0.497-0.553,1.071-1.225,1.153c-0.846,0.104-1.441,0.68-2.123,1.092
						c-0.504-0.412,0.314-1.281-0.685-1.631c-1.075-0.378-1.216-1.174-0.613-2.055c0.304-0.445,0.304-0.445,1.559,0.4
						c0.592-0.425-0.101-1.17,0.499-1.715C74.532,23.646,75.183,24.785,76,25.755"/>
					<path id="Fill-231" fill="#DCD9DB" d="M99.613,12.119c0.812,0.815,2.003,1.518,1.008,2.881c-1.007-1.208-2.691-2.014-2.619-4
						c0.552,0.148,0.74,0.869,1.356,0.771C99.443,11.887,99.529,12.003,99.613,12.119"/>
					<path id="Fill-233" fill="#DCD7D9" d="M55,25c-0.664-0.65-1.813-0.637-2-1.937C54.41,22.692,54.574,24.024,55,25"/>
					<path id="Fill-235" fill="#D4D1D3" d="M99.724,10.188c-0.116-0.265-0.388-0.576,0.022-0.769
						c0.147-0.069,0.514,0.056,0.613,0.206c0.298,0.434-0.052,0.712-0.352,0.977C99.914,10.463,99.819,10.324,99.724,10.188"/>
					<path id="Fill-237" fill="#DCD9DB" d="M98.849,10.682c0.073,0,0.208-0.021,0.216,0c0.046,0.139,0.1,0.293,0.084,0.433
						c-0.033,0.28-0.13,0.284-0.208,0.013C98.896,10.98,98.879,10.83,98.849,10.682"/>
					<path id="Fill-239" fill="#D4D0D3" d="M80.965,12.68c0.07,0.213,0.141,0.428,0.208,0.641c-0.586-0.045-0.264-0.385-0.204-0.641
						H80.965z"/>
					<path id="Fill-241" fill="#DCD7D9" d="M52.851,22.002c0.042-0.048,0.1-0.146,0.124-0.139c0.066,0.021,0.116,0.087,0.174,0.135
						c-0.042,0.048-0.098,0.146-0.124,0.139C52.961,22.116,52.907,22.05,52.851,22.002"/>
					<path id="Fill-243" fill="#DCD9DB" d="M97.786,10.09c0.138-0.092,0.28-0.184,0.418-0.278
						C98.254,10.191,98.116,10.283,97.786,10.09"/>
					<path id="Fill-245" fill="#E0DBDC" d="M73.952,86.519c0.47-1.031-0.603-1.822-0.409-2.784c0.5-1.424-0.271-1.379-1.202-1.148
						l-0.554-0.114c-1.093-1.716-1.1-1.721,0.305-3.191c0.273-0.285,0.665-0.456,0.902-0.764c0.299-0.396,0.018-0.589-0.356-0.66
						c0.011-1.665,0.769-0.403,1.218-0.343c-0.346,0.671,0.568,1.171,0.226,1.843c0.434,1.873,1.014,3.671,2.376,5.069
						c0.442,0.456,0.77,0.958,0.347,1.612c-0.065,0.19-0.336-0.142-0.38,0.147c0.133-0.036,0.25,0,0.354,0.122
						c0.523,1.464-0.206,2.736-0.702,3.944c-0.52,1.266-1.319,0.721-1.928-0.119c-0.016-0.099-0.029-0.2-0.041-0.299
						c0.353-0.586,0.262-1.139-0.114-1.668C73.619,87.634,73.529,87.081,73.952,86.519c0.315,0.125,0.06,0.332,0.162,0.076
						c0.001-0.008-0.026-0.026-0.09-0.053c-0.245-0.102-0.235,0.213-0.145-0.046C73.883,86.487,73.931,86.503,73.952,86.519"/>
					<path id="Fill-247" fill="#E7E3E3" d="M56.829,53.514c-0.202,0.172-0.435,0.576-0.208,0.6c1.846,0.213,2.861,1.736,4.342,2.508
						c0.211,1.081-0.521,1.806-1.052,2.632c-0.553-0.454-0.829-1.239-1.771-1.362c-0.082,0.645,0.688,0.693,0.83,1.123
						c0.086,0.262,0.061,0.535-0.128,0.744c-0.193,0.213-0.587,0.337-0.719,0.154c-0.646-0.901-1.647-0.979-2.601-1.225
						c-0.209-0.055-0.342-0.392-0.508-0.598v-0.004c0.283-0.727-0.256-1.5,0.129-2.222c0.104-0.128,0.236-0.228,0.391-0.294
						c0.146-0.085,0.288,0.129,0.369,0.062c0.07-0.06-0.019-0.226-0.12-0.322c-0.188-0.474-0.364-0.947-0.384-1.464
						c0.116-0.655,0.464-0.981,1.18-0.79C56.744,53.166,56.828,53.318,56.829,53.514"/>
					<path id="Fill-249" fill="#E5E0E1" d="M42.902,27c0.282,0.4,0.506,0.855,0.857,1.188c0.864,0.82,1.932,1.545,0.826,2.867
						c0.396,0.999,0.772,2.008,1.193,2.998c0.211,0.494,0.76,0.838,0.683,1.467c-0.11,0.844,0.674,0.637,1.013,0.597
						c0.425-0.048,0.726-0.516,0.458-0.95c-0.52-0.846-0.171-1.664-0.19-2.7c1.496,0.837,2.061,1.945,2.213,3.298
						c0.111,1.015,0.266,2.125,0.088,3.037c-0.363,1.855,0.316,2.995,1.823,3.921c-0.116,0.349,0.3,0.674,0.057,1.026
						c-0.698,0.084-0.858,0.837-1.491,1.058c-1.579,0.55-2.561-0.087-2.277-1.657c0.226-1.247-0.294-2.424-0.147-3.664
						c0.091-0.78-0.658-1.127-1.389-1.348c-0.645-0.191-1.494-0.049-1.76-0.912c0.154-0.813,0.416-1.631-0.126-2.412
						c-0.553-0.723-0.943-1.498-1.206-2.377c-0.394-1.318-0.366-2.747-1.218-3.963C41.89,27.875,41.739,27.135,42.902,27"/>
					<path id="Fill-251" fill="#E5E2E3" d="M28.724,11c0.625,1.437,1.155,2.854,2.276,3.852c-0.616,0.273-1.039,0.173-1.294-0.334
						c-0.225-0.445-0.241-1.11-0.527-1.437c-0.464-0.527-0.31,0.667-0.713,0.544c-0.408-0.127-0.633-1.108-0.316-1.643
						C28.332,11.676,28.599,11.462,28.724,11"/>
					<path id="Fill-253" fill="#DCD7D8" d="M38.411,15.163c0.958,0.166,1.332,0.724,1.122,1.674
						C39.159,16.279,38.785,15.721,38.411,15.163"/>
					<path id="Fill-255" fill="#E5E2E3" d="M26.208,11.561c0.06,0.312,0.1,0.627-0.148,0.873c-0.034,0.032-0.292-0.066-0.304-0.13
						c-0.068-0.366,0.216-0.546,0.454-0.743H26.208z"/>
					<path id="Fill-257" fill="#DCD7D8" d="M37.91,14.451c0.244,0.338,0.378,0.691,0.168,1.098
						C37.855,15.209,37.717,14.855,37.91,14.451"/>
					<path id="Fill-259" fill="#DBD6D8" d="M27.878,20.915c0.062-0.017,0.166-0.062,0.18-0.042c0.04,0.057,0.046,0.139,0.064,0.21
						c-0.062,0.019-0.168,0.063-0.182,0.044C27.902,21.07,27.896,20.988,27.878,20.915"/>
					<path id="Fill-261" fill="#DCD7D8" d="M37.909,15.788c0.094,0.138,0.186,0.274,0.28,0.411
						C37.809,16.256,37.715,16.12,37.909,15.788"/>
					<path id="Fill-263" fill="#DFDADB" d="M45.463,37.088c0.496,0.302,1.057,0.309,1.613,0.385
						c1.707,0.237,2.226,0.959,1.951,2.604c-0.045,0.27-0.209,0.674-0.087,0.792c1.134,1.106,0.091,2.171-0.122,3.498
						c0.994-0.365,2.405,0.862,2.538-1.173c0.354,0.117,0.709,0.237,1.063,0.356l0.241,0.045c0.163,0.176,0.308,0.376,0.574,0.411
						c0.239,0.396,0.622,0.73,0.624,1.23c-0.47,0.229-0.751-0.012-0.96-0.283c-0.403-0.525-0.728-0.582-1.08,0.038
						c-0.31,0.534-0.186,0.891,0.349,1.192c0.755,0.43,1.529,0.35,2.218-0.021c0.624-0.338,0.312-0.983,0.241-1.514
						c-0.029-0.205-0.195-0.455-0.123-0.598c0.75-1.461,0.158-2.658-0.694-3.834c-0.095-0.132,0.001-0.398,0.01-0.604
						c0.188,0.015,0.366,0.069,0.528,0.164c0.358,0.421,0.904,0.632,1.264,1.056c0.14,0.23,0.207,0.49,0.316,0.734
						c0.195,0.277,0.316,0.627,0.721,0.699c0.209,1.075,0.533,2.162-0.2,3.17c-0.435,0.598,0.104,1.03,0.216,1.536
						c0.191,0.914,0.826,1.86-0.531,2.761c1.217,0.231,2.108,1.143,3.008-0.068c0.1-0.037,0.197-0.073,0.297-0.111
						c0.436-0.043,0.834,0.035,1.175,0.323c0.701,0.907,0.44,1.468-0.65,1.708c-0.882,0.196-1.774-0.02-2.643,0.049
						c-0.11,0.06-0.214-0.014-0.319-0.07c-0.004,0.139,0.07,0.17,0.23,0.097c0.842,0.396,0.789,0.814,0.04,1.249
						c-0.495,0.02-0.851,0.248-1.057,0.696c-1.631,0.61-0.433,1.37-0.112,2.081c-0.383,0.727,0.443,1.689-0.464,2.314
						c-0.351-0.99-0.868-1.77-2.122-1.609c-0.2-0.278-0.436-0.498-0.82-0.461c-0.479-0.578-0.725-1.345-1.409-1.736
						c-0.945,0.074-0.418,1.25-1.139,1.47c-0.088-0.058-0.17-0.083-0.194-0.133c-0.513-1.097,0.927-1.505,0.888-2.342
						c-0.034-0.743-1.041-1.38-0.402-2.244c0.553-0.748,0.123-1.106-0.455-1.481c-0.585-0.377-1.191-0.734-1.712-1.186
						c-0.42-0.365-0.996-0.843-0.117-1.359c0.438-0.258,0.083-0.442-0.065-0.59c-0.293-0.29-0.632-0.534-0.954-0.798
						c0.342-0.226,0.682-0.451,1.028-0.679c-0.245-0.532-1.038-0.42-1.006-0.977c0.069-1.188-0.886-1.805-1.417-2.657
						c-0.206-0.331-0.206-1.417-0.913-0.214c-0.147,0.246-0.602-0.438-0.62-0.777c-0.037-0.752,0.069-1.297-1.119-1.044
						c-0.56,0.12-0.915-0.851-1.087-1.483c0.489-0.58,0.79,0.205,1.101,0.075c0.527-0.222,1.687,0.71,1.547-0.774
						C44.92,37.028,45.191,37.059,45.463,37.088"/>
					<path id="Fill-265" fill="#C5C0C2" d="M35.148,42.242c-1.424-0.568-2.798-1.179-3.36-2.891c-0.163-0.5-0.49-0.258-0.792-0.062
						c-0.438,0.279-0.318,0.568-0.034,0.83c0.392,0.365,0.944,0.574,1.049,1.308c-0.779,0.746-1.505,0.273-2.11-0.288
						c-0.592,0.655,0.468,0.889,0.104,1.398c-0.127,0.012-0.323,0.08-0.358,0.025c-0.916-1.325-1.789-4.293-1.626-5.477
						c0.017-0.119,0.068-0.332,0.116-0.336c1.476-0.126,1.036-1.332,1.133-2.23c-1.123-1.076,0.451-2.347-0.223-3.456
						c0,0,0,0.009,0.001,0.009c2.039-0.182,1.997-0.162,2.807,1.801c0.813,1.971,1.944,3.816,3.309,5.34
						c1.428,1.596,2.439,3.353,3.26,5.303c0.471,0.775,0.96,1.541,1.408,2.334c0.216,0.381,0.258,0.812-0.073,1.172
						c-0.281,0.306-0.618,0.182-0.937,0.068c-0.734-0.258-1.576-0.276-1.779-1.4c-0.272-1.502-0.334-1.49-2.25-1.567
						c0.361,1.604-0.295,3.376,1.35,4.878c-1.218-0.566-1.195-0.578-1.803-1.801c-0.373-0.748-1.085-1.471-0.793-2.312
						c0.2-0.577,0.28-0.811-0.22-1.139c-0.193-0.126-0.116-0.475,0.118-0.406C34.414,43.623,34.251,42.021,35.148,42.242"/>
					<path id="Fill-267" fill="#E0DCDD" d="M36.001,33c0.833,0.417,2.063,0.252,2.193,1.698c1.354-0.191,2.397,1.286,3.806,0.811
						C41.01,36.8,40.118,38.133,40.394,40c-1.131-0.877-1.005-0.916-1.386-2.373c-0.25-0.971-0.911-1.825-1.426-2.708
						c-0.081-0.14-0.481-0.259-0.533-0.198c-0.984,1.201-0.778-0.023-0.806-0.479C36.217,33.805,36.23,33.385,36,33H36.001z"/>
					<path id="Fill-269" fill="#E0DCDD" d="M40.023,31.66c-0.24-0.436-0.566-1.141-0.106-1.288c0.588-0.188,0.362,0.496,0.314,0.849
						C40.214,31.372,40.098,31.512,40.023,31.66"/>
					<path id="Fill-271" fill="#E0DCDD" d="M40.151,32.316c-0.076,0.002-0.208,0.021-0.216,0.002
						c-0.046-0.141-0.1-0.293-0.084-0.432c0.032-0.281,0.128-0.285,0.208-0.013C40.102,32.018,40.12,32.168,40.151,32.316"/>
					<path id="Fill-273" fill="#E0DCDD" d="M41.113,33.941c-0.008,0.074-0.014,0.148-0.022,0.223
						c-0.066-0.034-0.162-0.055-0.192-0.107c-0.03-0.057,0.006-0.146,0.012-0.221C40.979,33.872,41.047,33.906,41.113,33.941"/>
					<path id="Fill-275" fill="#DFDADB" d="M44.877,41.916c0.064-0.017,0.168-0.062,0.182-0.043c0.04,0.057,0.044,0.139,0.064,0.211
						c-0.064,0.016-0.168,0.062-0.182,0.043C44.901,42.071,44.897,41.987,44.877,41.916"/>
					<path id="Fill-277" fill="#E0DCDD" d="M37.917,36.835c0.066,0.036,0.162,0.054,0.194,0.11c0.03,0.054-0.006,0.144-0.014,0.22
						C37.887,37.133,37.827,37.023,37.917,36.835"/>
					<path id="Fill-279" fill="#CECACC" d="M43.486,46.414c-0.458,0.043-0.734-0.217-0.972-0.555
						c0.138-0.094,0.276-0.186,0.416-0.277L43.486,46.414z"/>
					<polygon id="Fill-281" fill="#E0DCDD" points="41.881,34.955 42.119,34.936 42.093,35.064 					"/>
					<path id="Fill-283" fill="#DCD7D8" d="M82.915,96.881c-0.658,0.451-1.398,0.847-0.69,1.876c0.25,0.364,0.564,0.929-0.012,1.192
						c-0.512,0.234-0.547-0.408-0.658-0.751c-0.178-0.556-1.074-1.002-0.965-1.124c1.148-1.273-0.848-0.859-0.705-1.53
						c-0.045-0.077-0.093-0.156-0.141-0.232c-0.703-1.039-1.566-1.989-1.444-3.433c0.062-0.71,0.198-1.335,0.759-1.784
						c0.607-0.488,0.612-0.483,0.014-1.138c-0.172,0.016-0.33-0.02-0.478-0.104c-0.218-0.164-0.394-0.366-0.49-0.621
						c-0.431-1.151,0.575-1.068,1.104-1.398c-0.355-0.515-1.21-1.299-0.663-1.611c0.818-0.47,1.656-1.125,2.669-1.223
						c0.089,0.026,0.175,0.055,0.263,0.083c0.419,0.571,0.736,1.186,0.759,1.925c0.044,0.149,0.065,0.301,0.074,0.455
						c0.04,0.242,0.106,0.478,0.179,0.715c-0.011,1.442-0.311,2.916,0.487,4.254c0.196,0.566-0.866-0.364-0.632,0.688
						C82.611,94.33,83.152,95.563,82.915,96.881"/>
					<path id="Fill-285" fill="#C3BDC0" d="M83.021,97.736c-0.62-1.261-1.188-2.48-0.975-3.997c0.14-0.987,0.666-0.282,0.963-0.442
						c0.677-0.354,1.324-0.545,1.757,0.333c0.158,0.438,0.293,0.885,0.479,1.309c0.25,0.568,0.648,0.854,1.293,0.509l-0.02-0.005
						c0.221,1.73,1.508,2.99,2.121,4.547c-0.228,0.513,0.125,0.869,0.361,1.255c-0.411,0.129,0.467,1.443-0.865,0.831
						c-0.394-0.181-0.115,0.663-0.412,0.924c-0.587-0.555-1.126-1.172-1.773-1.645c-0.744-0.543-1.324-1.122-1.453-2.063
						c-0.049-0.366-0.391-0.518-0.764-0.539C83.494,98.414,83.258,98.076,83.021,97.736"/>
					<path id="Fill-287" fill="#ECE8E8" d="M86.115,89.516c-0.125-0.632,0.161-1.101,0.65-1.516c0.72,0.498-0.137,0.983,0.129,1.488
						c0.578,0.025,0.759-0.723,1.373-0.632c0.088,0.075,0.275,0.172,0.264,0.239c-0.184,1.11,0.82,1.95,0.82,3.024
						c0,0.373,0.5,0.382,0.785,0.553c1.14,0.677,1.121,0.684,0.123,1.745c-0.208,0.222-0.176,0.656-0.855,0.573
						c-0.238-1.628-1.375-2.845-2.686-3.958C85.866,90.742,85.932,90.148,86.115,89.516"/>
					<path id="Fill-289" fill="#EEEAEA" d="M85.325,93c-0.553-0.435-1.271-0.084-1.861-0.331c-0.254-0.324-0.455-0.708-0.774-0.96
						c-0.723-0.568-0.966-1.142-0.297-1.873c0.599-0.655,0.248-1.238-0.176-1.811c0.035-0.188,0.083-0.372,0.135-0.555
						c0.119-0.08,0.234-0.159,0.348-0.24c0.131-0.078,0.256-0.154,0.385-0.23c0.389,0.057,0.654,0.265,0.839,0.573
						c0.151,0.289,0.254,0.592,0.312,0.909c0.027,0.073,0.059,0.146,0.086,0.219c0.164,0.226,0.329,0.45,0.496,0.673
						c1.159,0.434,1.309,1.277,1.109,2.265C85.725,92.091,85.524,92.546,85.325,93"/>
					<path id="Fill-291" fill="#DCD7D8" d="M78.169,81.001c1.001-0.049,1.315,1.016,1.82,1.772c0.337,0.632,0.674,1.263,1.011,1.897
						c-0.047,0.08-0.091,0.164-0.137,0.245c-0.428,0.189-0.777,0.06-1.049-0.383c-0.032-0.511-0.369-0.252-0.574-0.349
						C78.824,83.153,77.544,82.583,78.169,81.001"/>
					<path id="Fill-293" fill="#D9D4D5" d="M85.092,91.634c-0.364-0.765-0.729-1.529-1.092-2.295
						c0.398-0.28,0.883-0.262,1.342-0.339c0.204,0.533,0.408,1.065,0.615,1.598c-0.004,0.249-0.039,0.5,0.002,0.742
						c0.043,0.262,0.122,0.548-0.198,0.643C85.479,92.067,85.273,91.825,85.092,91.634"/>
					<path id="Fill-295" fill="#D7D1D2" d="M83.645,88.362c-0.215-0.324-0.43-0.646-0.645-0.969
						c0.331-0.164,0.797-0.627,1.007-0.247c0.3,0.537,1.162,0.781,0.964,1.53C84.883,89.012,84.402,88.908,84.1,89
						C83.771,88.905,83.615,88.695,83.645,88.362"/>
					<path id="Fill-297" fill="#DCD7D8" d="M80.539,84.373c0.816,0.058,1.101,0.474,0.84,1.254l0.002-0.002
						C80.768,85.431,80.459,85.033,80.539,84.373"/>
					<path id="Fill-299" fill="#C3BDC0" d="M86.817,95.29c-0.03-0.24,0.118-0.636,0.208-0.572c0.484,0.358-0.156,0.364-0.23,0.566
						L86.817,95.29z"/>
					<path id="Fill-301" fill="#BFB9BD" d="M47.219,24.814c0.013-0.227,0.052-0.457,0.029-0.676
						c-0.032-0.354-0.409-0.746-0.168-1.012c0.339-0.373,0.576,0.164,0.797,0.492c0.354,0.779,0.807,1.506,1.033,2.352
						c0.274,1.016-0.104,1.271-0.751,0.803l0.004-0.002c0.159-0.923-0.742-0.82-0.761-1.572
						C47.341,25.07,47.281,24.941,47.219,24.814"/>
					<path id="Fill-303" fill="#D6D1D3" d="M53.21,39.858c-0.066-0.108-0.133-0.218-0.2-0.325C52.842,38.947,52.119,38.78,52,38
						c0.852-0.031,0.872,1.176,1.604,1.09L54,39.75C53.783,40.204,53.484,39.912,53.21,39.858"/>
					<path id="Fill-305" fill="#CBC5C7" d="M46.417,25.165c0.594,0.41,1.522,0.592,1.14,1.67
						C47.319,26.182,46.059,26.227,46.417,25.165"/>
					<path id="Fill-307" fill="#DFDADB" d="M53.219,42.802c0.11,0.245,0.15,0.506-0.122,0.646c-0.174,0.092-0.316-0.041-0.344-0.25
						c-0.036-0.238-0.148-0.504,0.104-0.672C52.897,42.498,53.095,42.703,53.219,42.802"/>
					<path id="Fill-309" fill="#E0DCDD" d="M42.801,22.621c0.326,0.067,0.556,0.246,0.632,0.575c0.014,0.06-0.056,0.14-0.09,0.212
						c-0.212-0.201-0.428-0.402-0.644-0.604C42.493,22.61,42.525,22.549,42.801,22.621"/>
					<path id="Fill-311" fill="#E0DCDD" d="M38.184,19.895c0.006,0.142,0.01,0.283,0.016,0.424c-0.126-0.07-0.298-0.112-0.364-0.219
						c-0.064-0.105-0.022-0.275-0.028-0.418C37.934,19.752,38.058,19.824,38.184,19.895"/>
					<path id="Fill-313" fill="#DFDADB" d="M51.916,43.533c-0.22-0.35-0.358-0.711-0.142-1.116c0.184,0.28,0.374,0.558,0.56,0.838
						c-0.002,0.198-0.062,0.306-0.186,0.322c-0.122,0.016-0.198,0-0.23-0.044H51.916z"/>
					<path id="Fill-315" fill="#E5E0E1" d="M51.517,43.86c0.138-0.093,0.278-0.187,0.416-0.278l0.55,0.83
						C52.029,44.46,51.753,44.194,51.517,43.86"/>
					<path id="Fill-317" fill="#DFDBDC" d="M25.207,62.92c-0.114,0.073-0.229,0.147-0.345,0.219c-0.978,0.153-2.149-0.45-2.864,0.79
						c-0.087,0.148-0.387,0.046-0.513-0.127c-0.223-0.307-0.051-0.473,0.231-0.606c0.464-0.218,1.232-0.293,0.501-1.122
						c-0.064-0.074,0.23-0.689,0.672-0.376c0.208,0.15,0.332,0.425,0.511,0.63c0.185,0.214,0.411,0.361,0.702,0.221
						c0.382-0.185,0.395-0.504,0.262-0.86c-0.286-0.766-0.578-1.531-0.861-2.3c-0.286-0.781-0.772-1.087-1.558-0.713
						c-0.212-0.069-0.223-0.318-0.371-0.443c0.116,0.155,0.132,0.396,0.37,0.445c0.182,0.272,0.983,0.287,0.5,0.791
						c-0.334,0.348-0.49,0.565-0.36,1.019c0.116,0.407-0.095,0.712-0.466,0.743c-0.479,0.041-0.321-0.477-0.48-0.71
						c-0.922-1.354-1.078-2.709-0.209-4.139c-1.145-1.408-1.778-3.047-2.064-4.836c-0.09-0.557-0.142-1.104-0.864-1.135
						c0.006-0.066-0.013-0.156,0.021-0.197c1.579-1.859,1.579-1.857,1.913-4.78c0.488-0.224,0.83,0.368,1.299,0.257
						c0.458,0.012,0.88-0.18,1.367-0.1c1.743,0.287,1.19-0.697,0.877-1.527c-0.203-0.303-0.466,0.078-0.267-0.107
						c0.042-0.04,0.059,0.031,0.141,0.145c0.612,0.839,0.519,1.447-0.596,1.414c-0.535-0.017-1.028-0.026-1.521,0.174
						c-0.353-0.612-0.284-1.406-0.796-1.952l0.003-0.001c0.066-0.186,0.062-0.385,0.112-0.574c0.21-1.045,0.81-1.867,1.47-2.65
						c0.593-0.709,1.218-1.378,1.418-2.355c0.106-0.514,0.294-1.225,0.943-1.146c0.737,0.089,1.414,0.531,1.677,1.318
						c0.124,0.371,0.039,0.814,0.068,1.223c0.037,0.486,0.197,0.873,0.559,1.262c0.959,1.031,1.823,2.152,2.724,3.238
						c1.329,1.73,1.437,3.824,1.578,5.877c0.074,1.055-0.234,1.198-1.447,1.027c0.024-0.104,0.045-0.207,0.06-0.312
						c-0.024,0.104-0.043,0.207-0.06,0.312c-0.133,0.148-0.265,0.295-0.398,0.443c-0.922-1.588-2.271-0.975-3.636-0.744
						c0.496,0.859,1.042,1.625,0.941,2.675c-0.051,0.534,0.331,1.058,0.831,1.307c0.279,0.139,0.453-0.149,0.48-0.456
						c0.728,0.002,0.779,0.723,0.612,1.002c-0.381,0.625-0.267,1.183,0.157,1.842c-0.936-0.062-1.301-0.398-1.677-0.957
						c-0.337-0.502-0.443-1.299-1.221-1.421c-0.452-0.3-0.32-1.044-0.906-1.241c0.3-2.458-2.067-2.056-3.227-2.949
						c1.198,0.912,2.714,1.484,3.286,3.054c0.596,0.13,0.294,0.969,0.847,1.136c-0.455,1.072,0.742,1.613,0.777,2.575
						c0.035,0.941-0.34,0.623-0.77,0.416c-0.812,1.031-0.714,2.246-0.655,3.454c0.148,0.228,0.295,0.457,0.442,0.686
						c-0.052,0.188-0.085,0.379-0.114,0.57C25.278,62.535,25.241,62.728,25.207,62.92"/>
					<path id="Fill-319" fill="#DFDBDC" d="M15.826,51.982c0.044-0.187,0.089-0.375,0.133-0.561
						c0.391-0.242,0.754-0.576,1.283-0.343c0.079,0.114,0.158,0.228,0.236,0.339c-0.435,0.361,0.452,1.27-0.685,1.408
						c-0.433,0.055-0.02,0.404,0.122,0.559c1.018,1.084,1.429,2.184,1.195,3.78c-0.192,1.319,0.555,2.766,0.89,4.173
						c-0.383,0.225-0.87,0.269-1.308,0.446c-0.705,0.285-1.623,0.506-1.471-0.822c0.008-0.065-0.007-0.179-0.044-0.193
						c-1.185-0.488-0.423-1.479-0.608-2.218c-0.27-1.067-0.234-1.075,0.47-2.847c-0.465,0.003-1.162,0.526-1.02-0.606
						C15.153,54.014,15.907,53.101,15.826,51.982"/>
					<path id="Fill-321" fill="#E5E1E3" d="M17.416,66.634c-0.083-0.135-0.167-0.269-0.25-0.402c0.362-0.719-0.7-1.855,0.22-2.176
						c1.144-0.396,0.569,1.422,1.381,1.776c0.268,0.118,0.289,0.698,0.146,1.096C18.336,67.224,17.948,66.505,17.416,66.634"/>
					<path id="Fill-323" fill="#CFCCCE" d="M19.958,68.123c-0.008-0.078-0.038-0.218-0.018-0.226
						C20.1,67.835,20.11,67.921,19.958,68.123"/>
					<path id="Fill-325" fill="#DFDBDC" d="M17.876,50.959c0.078-0.008,0.218-0.041,0.226-0.019
						C18.167,51.101,18.081,51.111,17.876,50.959"/>
					<path id="Fill-327" fill="#E5E1E1" d="M95.42,90.681c-0.6,0.784-0.066,1.397,0.362,2.057c0.459,0.712,0.187,1.161-0.759,1.263
						c-0.436-0.194-0.789-0.545-1.338-0.515c-0.096-0.022-0.191-0.047-0.286-0.075c-0.714-1.026-0.376-2.055,0.271-2.915
						C94.149,89.856,94.952,89.752,95.42,90.681"/>
					<path id="Fill-329" fill="#E5E1E1" d="M94.465,94.485c-0.139,0.094-0.278,0.188-0.418,0.282
						c-0.293-0.47-0.711-0.906-0.422-1.534C94.244,93.421,94.524,93.839,94.465,94.485"/>
					<path id="Fill-331" fill="#DDD9DA" d="M47,20.301c-0.868,0.982-0.868,0.982-1.878-0.342c-0.034-0.256-0.198-0.592-0.079-0.752
						c0.253-0.341,0.712-0.204,0.971,0.006C46.394,19.521,46.675,19.933,47,20.301"/>
					<path id="Fill-333" fill="#D6D1D3" d="M55.16,41.947c-0.184-0.277-0.369-0.553-0.554-0.83c0.146-0.396-0.321-0.711-0.147-1.113
						c0.453-0.039,0.736,0.219,0.972,0.554c0.05,0.368,0.103,0.739,0.149,1.106l-0.004,0.019c-0.004,0.194-0.065,0.301-0.188,0.312
						C55.269,42.01,55.193,41.993,55.16,41.947"/>
					<path id="Fill-335" fill="#DCD7D8" d="M54.573,39.645c0.218,0.351,0.358,0.713,0.146,1.121
						c-0.515-0.465-1.028-0.929-1.544-1.393l1.111-0.139C54.383,39.371,54.479,39.509,54.573,39.645"/>
					<path id="Fill-337" fill="#DCD7D8" d="M47.958,28.123c-0.008-0.078-0.038-0.219-0.018-0.227c0.16-0.062,0.17,0.024,0.016,0.227
						H47.958z"/>
					<path id="Fill-339" fill="#DBD6D8" d="M28.511,32c0.626,0.68,0.592,1.429,0.227,2.154c-0.166,0.324-0.146,0.568,0.036,0.846
						c-1.333-0.256-2.148-1.322-1.601-2.109c0.062-0.089,0.294-0.209,0.345-0.184C28.913,33.383,28.064,32.127,28.511,32"/>
					<path id="Fill-341" fill="#D7D4D6" d="M31.73,45.423c0.368,0.076,0.508,0.384,0.642,0.675c0.12,0.256,0.03,0.478-0.274,0.479
						c-0.272,0-0.436-0.196-0.474-0.464C31.594,45.877,31.492,45.621,31.73,45.423"/>
					<path id="Fill-343" fill="#D8D3D5" d="M20.069,43.652c-0.046,0.231-0.094,0.464-0.138,0.695
						C19.975,44.116,20.023,43.884,20.069,43.652"/>
					<path id="Fill-345" fill="#E0DDDE" d="M2.702,74.912c0.643-0.685,0.527-2.112,2.097-1.889c0.187,0.338,0.305,0.688,0.073,1.043
						c-0.546,0.835-0.839,1.706-0.747,2.715c0.044,0.478-0.043,1.086-0.755,1.204c-0.52,0.086-0.874-0.209-1.184-0.572
						c-0.439-0.511,0-0.76,0.307-1.087C2.876,75.912,3.044,75.437,2.702,74.912"/>
					<path id="Fill-347" fill="#DFDCDD" d="M4.876,71.957c0.08-0.006,0.218-0.038,0.228-0.016
						C5.168,72.099,5.08,72.111,4.876,71.957"/>
					<path id="Fill-349" fill="#E0DCDD" d="M19.876,10.959c0.078-0.008,0.218-0.039,0.226-0.018
						c0.064,0.158-0.022,0.168-0.226,0.016V10.959z"/>
					<path id="Fill-351" fill="#D6D3D5" d="M8,65.061c1.666-0.513,2.233-1.82,2.891-3.061c0.749,0.235,0.521,0.704,0.361,1.157
						C10.816,64.425,9.886,65.722,12,67C9.936,66.893,9.199,65.63,8,65.061"/>
					<path id="Fill-353" fill="#D7D4D6" d="M15.979,70.86c-0.112,0.519-0.891,0.549-0.929,1.12
						c-0.735,0.071-1.338-0.007-0.904-0.914c0.227-0.469,0.497-0.908,0.366-1.446c-0.229-0.04-0.311-0.168-0.269-0.376
						c0.043-0.207,0.089-0.414,0.133-0.623c0.034-0.209,0.129-0.405,0.135-0.621c0.583-0.007,0.758,0.243,0.531,0.744
						c-0.049,0.207-0.093,0.414-0.131,0.624c0.269,0.373,0.535,0.744,0.8,1.117C15.949,70.517,16.046,70.637,15.979,70.86"/>
					<path id="Fill-355" fill="#D9D5D7" d="M16.789,68c1.52,1.583,1.556,1.843,0.406,3c-0.23-0.904-0.732-1.694-1.195-2.499
						C16.262,68.335,16.525,68.168,16.789,68"/>
					<path id="Fill-357" fill="#D9D5D7" d="M16.225,70.668c-0.075-0.14-0.15-0.28-0.225-0.42c0.662,0.152,1.289,1.136,2,0.132
						c-0.061,0.226-0.072,0.514-0.191,0.668C17.015,72.069,16.81,72.009,16.225,70.668"/>
					<path id="Fill-359" fill="#D9D5D7" d="M10.973,62.907c-0.1-0.52-0.082-1.074-0.418-1.528c0.134-0.098,0.272-0.192,0.408-0.286
						C11.383,61.695,11.792,62.297,10.973,62.907"/>
					<path id="Fill-361" fill="#D7D4D6" d="M11.958,72.124c-0.006-0.08-0.04-0.218-0.016-0.228
						C12.1,71.834,12.11,71.922,11.958,72.124"/>
					<path id="Fill-363" fill="#D9D5D7" d="M13.904,69.785c0.094,0.14,0.19,0.282,0.284,0.422
						C13.812,70.254,13.718,70.112,13.904,69.785"/>
					<path id="Fill-365" fill="#D9D5D7" d="M13.042,67.876c0.006,0.08,0.038,0.22,0.018,0.228
						C12.9,68.166,12.89,68.078,13.042,67.876"/>
					<path id="Fill-367" fill="#D9D5D7" d="M14.933,70.35c0.044-0.232,0.09-0.466,0.134-0.7
						C15.023,69.884,14.977,70.118,14.933,70.35"/>
					<path id="Fill-369" fill="#D9D5D7" d="M14.07,68.652c-0.046,0.232-0.094,0.464-0.14,0.696
						C13.976,69.116,14.024,68.884,14.07,68.652"/>
					<polygon id="Fill-371" fill="#D9D5D7" points="16.118,69.044 15.882,69.064 15.908,68.936 					"/>
					<path id="Fill-373" fill="#CFCBCD" d="M55.961,26.123c-0.008-0.078-0.04-0.219-0.02-0.227c0.158-0.062,0.168,0.024,0.016,0.227
						H55.961z"/>
					<path id="Fill-375" fill="#DBD6D8" d="M43.707,47.67c-0.188-0.279-0.374-0.558-0.562-0.836c0.07-0.044,0.136-0.092,0.208-0.134
						c0.506-0.292,1.148-0.706,1.432,0.097C45.123,47.748,44.155,47.469,43.707,47.67"/>
					<path id="Fill-377" fill="#CECACC" d="M44.113,47.511c0.148,0.336,0.4,0.687-0.076,0.966c-0.048,0.029-0.182,0.004-0.216-0.042
						C43.485,47.994,43.85,47.767,44.113,47.511"/>
					<path id="Fill-379" fill="#DFDADB" d="M52.836,55.411c-0.162,0.964-0.718,1.338-1.672,1.116
						C51.72,56.154,52.28,55.783,52.836,55.411"/>
					<path id="Fill-381" fill="#DFD9DA" d="M76.644,103.261c0.266,0.425,0.476,0.913,0.808,1.261
						c0.817,0.857,0.643,1.654-0.006,2.478c-0.078-0.125-0.154-0.247-0.23-0.37c-0.191-0.031-0.37-0.115-0.563-0.129
						c-0.076-0.123-0.151-0.248-0.228-0.372c0.062-0.202,0.059-0.418,0.111-0.624c-0.304-0.491-0.566-1.02-0.918-1.465
						c-0.428-0.543-0.84-1.187-1.673-0.609c-0.458,0.318-0.753-0.127-0.893-0.562c-0.208-0.65,0.248-0.754,0.657-0.793
						C74.85,101.967,76.035,101.758,76.644,103.261"/>
					<path id="Fill-383" fill="#E1DDDD" d="M70.842,107.344c-0.406-0.198-0.78,0.02-1.172,0.066
						c-0.555,0.064-0.678-0.274-0.502-0.756c0.402,0.202,0.773-0.018,1.162-0.064C70.884,106.524,71,106.868,70.842,107.344"/>
					<path id="Fill-385" fill="#E5E1E1" d="M75.469,100.164c0.374,0.558,0.746,1.114,1.122,1.672
						C75.629,101.672,75.252,101.116,75.469,100.164"/>
					<path id="Fill-387" fill="#DEDADA" d="M74.04,108.876c0.006,0.08,0.042,0.218,0.019,0.228
						c-0.158,0.062-0.168-0.024-0.017-0.228H74.04z"/>
					<path id="Fill-389" fill="#E5E1E1" d="M76.652,106.928c0.23,0.048,0.463,0.096,0.695,0.144
						C77.115,107.024,76.883,106.976,76.652,106.928"/>
					<path id="Fill-391" fill="#E5E1E1" d="M76.066,105.651l-0.133,0.698L76.066,105.651z"/>
					<path id="Fill-393" fill="#E5E1E1" d="M77.066,101.651c-0.043,0.234-0.09,0.466-0.133,0.698
						C76.977,102.117,77.023,101.885,77.066,101.651"/>
					<path id="Fill-395" fill="#CECACC" d="M31.851,52.002c0.042-0.05,0.1-0.146,0.124-0.139c0.066,0.021,0.118,0.087,0.174,0.135
						c-0.042,0.048-0.098,0.146-0.124,0.139C31.961,52.116,31.907,52.05,31.851,52.002"/>
					<path id="Fill-397" fill="#EAE6E6" d="M73,90.63c0.165-1.012,0.727-0.549,1.216-0.351c0.485,1.078,1.03,1.714,2.413,1.276
						c1.598-0.507,1.905-0.073,1.551,1.635c-0.373,1.787,0.916,2.875,1.588,4.223c-0.203,0.94-0.055,1.767,0.747,2.355
						c0.351,0.256,0.657,0.562,0.374,0.997c-0.281,0.432-0.712,0.152-1.073,0.062c-0.312-0.078-0.618-0.197-0.925-0.298
						c-0.076-0.116-0.148-0.229-0.223-0.345c-0.346-0.457-0.689-0.909-1.218-1.152c-1.223-0.498-2.087-1.869-3.708-1.473
						c-0.018-0.921-0.022-1.683,0.315-2.433c0.271-0.599-0.397-0.537-0.603-0.808c0.061-0.337,0.274-0.521,0.568-0.625
						c1.992,0.154,1.979,2.069,2.694,3.346c-0.346-0.833-0.758-1.651-0.567-2.607c0.021-0.15,0.054-0.306,0.08-0.45
						c-0.006-0.064-0.004-0.137-0.011-0.198c-0.112-0.213-0.308-0.193-0.503-0.184c-0.396,0.042-0.779-0.026-1.166-0.083
						c-0.084-0.015-0.167-0.031-0.251-0.048c-0.166-0.048-0.315-0.134-0.45-0.246c-0.26-0.274-0.396-0.59-0.291-0.982
						C73.184,91.775,73.051,91.218,73,90.63"/>
					<path id="Fill-399" fill="#E5E1E1" d="M73.737,93.559c-0.278,0.146-0.552,0.294-0.83,0.441c-1.149-0.922-1.138-1.115,0.128-2
						c0.282,0.331,0.562,0.664,0.842,0.995C73.985,93.207,73.945,93.396,73.737,93.559"/>
					<path id="Fill-401" fill="#E5E1E1" d="M77.22,98.303c0.748,0.206,1.72,0.16,1.538,1.394
						C77.85,99.667,77.664,98.843,77.22,98.303"/>
					<path id="Fill-403" fill="#EBE8E8" d="M52.809,62c-1.888-0.801-1.888-0.801-1.19-2C52.241,60.602,52.093,61.545,52.809,62"/>
					<path id="Fill-405" fill="#EBE8E8" d="M52.526,57.398c0.41-0.054,0.862-0.038,1.106,0.334c0.192,0.29,0.058,0.678-0.274,0.828
						c-0.516,0.232-0.732-0.216-0.95-0.554C52.282,57.811,52.152,57.548,52.526,57.398"/>
					<polygon id="Fill-407" fill="#DFDADB" points="53.044,55.881 53.066,56.119 52.934,56.091 					"/>
					<polygon id="Fill-409" fill="#EBE8E8" points="52.882,61.955 53.118,61.935 53.09,62.065 					"/>
					<path id="Fill-411" fill="#D8D3D4" d="M56,51.784c0.871-0.721,1.886-0.468,2.895-0.477c0.826-0.009,1.438-0.407,0.641-1.306
						c-0.424-0.249-0.688-0.632-0.929-1.035c-0.068-0.287-0.081-0.55,0.312-0.619c0.473-0.014,1.068,0.415,1.334-0.348
						c0.088,0.111,0.172,0.226,0.254,0.341c0.066,0.534,0.172,1.06-0.012,1.599c-0.135,0.402,0.061,0.635,0.506,0.648
						c0.027,1.268-1.052,2.061-1.451,3.147c-0.049,0.136-0.383,0.3-0.521,0.258c-0.792-0.249-1.766,0.243-2.415-0.554
						c-0.079-0.121-0.159-0.238-0.239-0.356c0.445-0.587,0.25-1.001-0.371-1.299H56z"/>
					<path id="Fill-413" fill="#E0DBDC" d="M72.07,82.652c-0.045,0.232-0.096,0.464-0.141,0.696
						C71.975,83.116,72.025,82.884,72.07,82.652"/>
					<path id="Fill-415" fill="#DFDADB" d="M58.896,48.438l-0.115,0.651c0.498,0.709,0.061,0.842-0.477,0.91h0.002
						c-0.748-0.295-1.926-0.332-0.914-1.724c0.561-0.772-0.243-1.437-0.125-2.276C58.71,46.152,58.144,47.84,58.896,48.438"/>
					<path id="Fill-417" fill="#DCD7D8" d="M55.512,41.851c0.139-0.09,0.278-0.178,0.416-0.266c0.188,0.274,0.374,0.552,0.561,0.825
						C56.032,42.453,55.75,42.191,55.512,41.851"/>
					<path id="Fill-419" fill="#E5E1E1" d="M80.215,97c-0.758-0.721-1.593-1.308-1.956-2.418c-0.363-1.101-0.542-2.007,0.513-2.825
						c-1.293-0.851-2.348-0.223-3.486,0.357c-0.463-0.81-1.362-1.325-1.16-2.396c0.42,0.26,0.842,0.521,1.513,0.938
						c0.548-1.585,1.36-3.002,1.146-4.716c0.561-0.748-0.062-1.083-0.529-1.507c-1.621-1.469-2.568-3.2-2.159-5.433
						c0.369,0.425,0.828,0.805,1.089,1.284c0.63,1.158,1.216,1.259,2.004,0.135c0.214-0.306,0.488,0.015,0.675,0.218
						c0.283,1.18,1.021,2.061,1.95,2.822l-0.002,0.002c0.353,0.508,0.84,0.7,1.457,0.582c0.246,0.353,0.488,0.706,0.732,1.058
						c-0.465,0.473-1.393,0.373-1.574,1.226c-0.029,0.145-0.318,0.265-0.512,0.349c-0.762,0.336-0.762,0.328,0.049,1.03
						c0.156,0.135,0.285,0.302,0.469,0.501c-0.693,0.171-1.24,0.594-1.932,0.463c-0.097,0.687,0.406,0.967,0.603,1.387l-0.002-0.002
						c0.321-0.267,0.61-0.596,0.978-0.776c0.221-0.109,0.715,0.236,0.535,0.368c-1.674,1.225,0.734,1.387,0.572,2.199
						c-0.608,0.208-1.23-0.903-1.865,0.054c-0.603,0.912-0.42,1.857-0.143,2.741c0.177,0.563,0.688,1.053,1.125,1.507
						C80.662,96.521,80.496,96.74,80.215,97"/>
					<path id="Fill-421" fill="#D5D0D1" d="M72,83.038c0.244-0.416,0.358-1.061,0.893-1.037c0.521,0.025,0.738,0.576,0.785,1.101
						c0.055,0.628,0.585,1.215,0.156,1.899c-0.4-0.009-0.485-0.436-0.681-0.704c-0.069-0.127-0.14-0.251-0.212-0.376
						c-0.303-0.047-0.427-0.471-0.733-0.511L72,83.038z"/>
					<path id="Fill-423" fill="#E0DBDC" d="M72.514,82.718c0.455-0.038,0.737,0.222,0.973,0.564
						C73.031,83.324,72.747,83.062,72.514,82.718"/>
					<path id="Fill-425" fill="#C3BEC0" d="M44.956,52.125c-0.008-0.08-0.038-0.223-0.016-0.23c0.162-0.062,0.172,0.026,0.018,0.23
						H44.956z"/>
					<path id="Fill-427" fill="#E9E5E5" d="M94.002,94c-0.279-0.41-0.561-0.821-0.84-1.229c0.428-0.177,0.564-0.915,1.096-0.746
						c0.65,0.206,0.43,0.925,0.58,1.425C94.561,93.633,94.282,93.817,94.002,94"/>
					<path id="Fill-429" fill="#D9D5D7" d="M24.929,63.347c0.044-0.232,0.094-0.462,0.142-0.694
						C25.023,62.885,24.973,63.115,24.929,63.347"/>
					<path id="Fill-431" fill="#E5E1E1" d="M76.78,86.586c-0.082,0.01-0.164,0.026-0.243,0.026c-0.617,0.004-1.156-0.134-1.314-0.83
						c-0.024-0.108,0.105-0.35,0.199-0.37c0.783-0.17,0.845,0.602,1.219,0.972C76.698,86.44,76.734,86.518,76.78,86.586"/>
					<path id="Fill-433" fill="#E5E1E1" d="M74.188,86.411c0.73,0.114,1.336,0.292,1.625,1.032
						C74.664,88.017,74.78,86.735,74.188,86.411"/>
					<path id="Fill-435" fill="#D8D3D4" d="M55.422,55c-1.1-0.137-1.055-1.107-1.422-1.775c0.603-0.559,1.035,0.111,1.516,0.023
						c0.326,0.395,0.443,0.865,0.484,1.363c-0.021,0.108-0.069,0.176-0.146,0.196c-0.079,0.022-0.127,0.022-0.142,0.001
						C55.616,54.873,55.52,54.938,55.422,55"/>
					<path id="Fill-437" fill="#DFDADB" d="M55.786,55.096l0.416-0.285C56.256,55.189,56.118,55.283,55.786,55.096"/>
					<path id="Fill-439" fill="#D8D3D4" d="M52.06,49c0.189,0.184,0.357,0.459,0.599,0.555c0.541,0.211,1.127,0.244,1.307,0.988
						c0.208,0.859-0.583,1.434-0.53,2.234c0.011,0.184-0.331,0.272-0.551,0.194c-0.835-0.29-1.13-1.133-1.711-1.684
						c-0.459-0.438,0.104-0.915,0.417-1.313C51.812,49.695,51.628,49.24,52.06,49"/>
					<path id="Fill-441" fill="#D6D1D3" d="M58.301,49.329c0.338-0.24,0.6-0.522,0.557-0.978c0.945-0.028,0.67,0.764,0.842,1.256
						C59.193,49.713,58.729,49.621,58.301,49.329"/>
					<path id="Fill-443" fill="#D8D3D4" d="M55.183,51.734c0.028,0.149,0.124,0.346,0.062,0.434c-0.06,0.09-0.278,0.07-0.429,0.098
						c-0.025-0.149-0.123-0.346-0.062-0.434C54.814,51.742,55.035,51.762,55.183,51.734"/>
					<path id="Fill-445" fill="#D8D3D4" d="M56.432,51.392c-0.215-0.065-0.459-0.088-0.637-0.208
						c-0.189-0.123-0.328-0.344-0.128-0.574c0.017-0.018,0.258,0.116,0.354,0.219c0.153,0.172,0.273,0.373,0.408,0.563H56.432z"/>
					<path id="Fill-447" fill="#CECACC" d="M34.519,42.496c0.386-0.027,0.882-0.193,0.958,0.383c0.036,0.283-0.208,0.736-0.546,0.66
						C34.435,43.422,34.663,42.851,34.519,42.496"/>
					<path id="Fill-449" fill="#E5E1E1" d="M82.076,87.659l-0.152,0.682L82.076,87.659z"/>
					<path id="Fill-451" fill="#D4CDCD" d="M85.521,98c-0.288-0.669-1.071-1.152-1.078-2C85.615,96.504,85.615,96.504,85.521,98"/>
					<path id="Fill-453" fill="#E5E1E1" d="M83.756,88.584c0.192,0.278,0.383,0.554,0.576,0.832
						C83.725,89.424,83.536,89.146,83.756,88.584"/>
					<path id="Fill-455" fill="#E5E1E1" d="M79.959,84.124c-0.008-0.08-0.04-0.22-0.018-0.228c0.159-0.062,0.17,0.026,0.016,0.228
						H79.959z"/>
					<path id="Fill-457" fill="#D7D3D4" d="M25.583,47.035c-0.597-0.435-0.636-1.031-0.547-1.615
						c0.072-0.482-0.032-1.111,0.571-1.337c0.52-0.194,1.013-0.042,1.355,0.406c0.315,0.411,0.467,0.772,0.933,0.063
						c0.104-0.154,0.947,0.597,0.583,1.145c-0.357,0.541-0.381,0.76,0.196,0.988c0.19,0.074,0.378,0.225,0.312,0.418
						c-0.205,0.594-0.087,1.375-0.651,1.757c-0.596,0.404-1.013-0.169-1.489-0.478C26.289,48.021,25.981,47.448,25.583,47.035"/>
					<path id="Fill-459" fill="#D9D5D7" d="M24.82,54c-1.461-0.483-2.195-1.885-3.609-2.47c-0.255-0.107-0.312-0.904,0.018-1.53
						c0.427,0.559,0.584,1.148,1.395,1.28C25.204,51.698,25.194,51.748,24.82,54"/>
					<path id="Fill-461" fill="#D8D3D5" d="M21.001,46.085c0.278-0.464,0.557-0.884,1.259-0.53c0.297,0.148,0.713,0.209,0.882-0.146
						c0.17-0.357-0.111-0.594-0.486-0.663c-0.333-0.059-0.489-0.166-0.297-0.481c0.154-0.251,0.301-0.355,0.639-0.168
						c0.466,0.256,1.249,0.155,0.887,1.079C23.717,45.602,23.93,46.154,24,47c-1-0.879-2.108-0.414-3-0.915H21.001z"/>
					<path id="Fill-463" fill="#D9D5D7" d="M20,53.09c1.616-0.307,2.279,0.131,3,1.91C21.528,54.91,21.03,53.766,20,53.09"/>
					<path id="Fill-465" fill="#D9D5D7" d="M22.275,58.973c-0.87-0.018-0.758-0.69-0.798-1.232c-0.038-0.49,0.2-0.799,0.724-0.692
						c0.448,0.092,0.332,0.4,0.236,0.736c-0.11,0.38-0.112,0.79-0.16,1.186L22.275,58.973z"/>
					<path id="Fill-467" fill="#D9D5D7" d="M23.643,56.316c0.172-0.008,0.396-0.084,0.474-0.01c0.41,0.387,0.434,0.864,0.162,1.336
						c-0.044,0.078-0.376,0.114-0.428,0.048C23.513,57.285,23.465,56.811,23.643,56.316"/>
					<path id="Fill-469" fill="#D9D5D7" d="M24.638,54.346c0.946-0.027,0.672,0.762,0.842,1.254v-0.002
						C24.148,55.889,24.566,55.002,24.638,54.346"/>
					<path id="Fill-471" fill="#D9D5D7" d="M20.876,56.957c0.08-0.006,0.218-0.037,0.226-0.016
						C21.167,57.1,21.081,57.109,20.876,56.957"/>
					<path id="Fill-473" fill="#D9D5D7" d="M25.958,58.124c-0.006-0.08-0.038-0.218-0.018-0.228
						C26.1,57.834,26.11,57.922,25.958,58.124"/>
					<path id="Fill-475" fill="#D7D4D6" d="M29.932,51.35c0.042-0.232,0.092-0.467,0.136-0.699
						C30.022,50.885,29.974,51.117,29.932,51.35"/>
					<path id="Fill-477" fill="#D7D4D6" d="M29.958,51.123c-0.006-0.08-0.038-0.219-0.016-0.227
						C30.1,50.835,30.109,50.921,29.958,51.123"/>
					<path id="Fill-479" fill="#D9D5D7" d="M17.626,59c0.788,0.822,1.1,1.336,0.202,2C17.76,60.342,17.71,59.828,17.626,59"/>
					<path id="Fill-481" fill="#E1DDDD" d="M74,93.899c0.043-0.216,0.088-0.431,0.131-0.647c0.156,0.046,0.27,0.024,0.333-0.065
						c0.063-0.09,0.084-0.154,0.06-0.187c0.438,0.084,0.875,0.168,1.314,0.252c0.399,0.247,1.039-0.685,1.307,0.25
						c-0.059,0.208-0.098,0.42-0.134,0.634C76.664,95.53,76.906,96.803,78,98c-1.168-0.343-1.179-0.338-1.474-0.983
						C75.954,95.768,75.303,94.584,74,93.899"/>
					<path id="Fill-483" fill="#E5E1E1" d="M76.697,93.405c-0.465-0.092-0.93-0.182-1.395-0.274
						C76.553,92.375,76.562,92.377,76.697,93.405"/>
					<path id="Fill-485" fill="#E5E1E1" d="M76.93,93.348c0.047-0.232,0.094-0.462,0.141-0.696
						C77.023,92.886,76.977,93.116,76.93,93.348"/>
					<path id="Fill-487" fill="#E5E1E1" d="M74.204,92.812c0.05,0.376-0.088,0.47-0.418,0.278
						C73.926,92.999,74.066,92.905,74.204,92.812"/>
					<path id="Fill-489" fill="#DCD7D8" d="M79.04,89.875c0.008,0.08,0.042,0.218,0.019,0.228c-0.158,0.064-0.168-0.024-0.017-0.228
						H79.04z"/>
				</g>
			</g>
		</g>
	</g>
</g>
</svg>
