<svg width="30px" height="30px" viewBox="0 0 30 30" version="1.1" xmlns="http://www.w3.org/2000/svg" xmlns:xlink="http://www.w3.org/1999/xlink">
    <g id="Welcome" stroke="none" stroke-width="1" fill="none" fill-rule="evenodd">
        <g id="Wedding-Website" transform="translate(-498.000000, -2758.000000)">
            <g id="faqs" transform="translate(128.000000, 2646.000000)" fill="#FF7DBB" fill-rule="nonzero">
                <g id="?" transform="translate(370.000000, 112.000000)">
                    <path d="M14.7580645,0.241935484 C6.62014134,0.241935484 0,6.86207682 0,15 C0,23.1379232 6.62014134,29.7580645 14.7580645,29.7580645 C22.8959877,29.7580645 29.516129,23.1379232 29.516129,15 C29.516129,6.86207682 22.8959877,0.241935484 14.7580645,0.241935484 Z M14.7580645,23.6087959 C14.0791161,23.6087959 13.5283009,23.0579807 13.5283009,22.3790323 C13.5283009,21.7000838 14.0791161,21.1492686 14.7580645,21.1492686 C15.437013,21.1492686 15.9878281,21.7000838 15.9878281,22.3790323 C15.9878281,23.0579807 15.437013,23.6087959 14.7580645,23.6087959 L14.7580645,23.6087959 Z M16.7048337,15.7895168 C16.2695411,15.9899361 15.9878281,16.4290569 15.9878281,16.9075861 L15.9878281,17.4597525 C15.9878281,18.1384757 15.4381389,18.6895161 14.7580645,18.6895161 C14.0779901,18.6895161 13.5283009,18.1384757 13.5283009,17.4597525 L13.5283009,16.9075861 C13.5283009,15.4722238 14.3718633,14.1564376 15.6743634,13.5549545 C16.9275468,12.9782425 17.8325862,11.4469492 17.8325862,10.6954894 C17.8325862,9.00093325 16.4539719,7.62096774 14.7580645,7.62096774 C13.0621572,7.62096774 11.6835428,9.00093325 11.6835428,10.6954894 C11.6835428,11.3744379 11.1336283,11.9254783 10.453554,11.9254783 C9.77347957,11.9254783 9.22379032,11.3744379 9.22379032,10.6954894 C9.22379032,7.64438752 11.7067374,5.16121524 14.7580645,5.16121524 C17.8093917,5.16121524 20.2923387,7.64438752 20.2923387,10.6954894 C20.2923387,12.3571679 18.8508963,14.7995808 16.7048337,15.7895168 Z" id="Shape"></path>
                </g>
            </g>
        </g>
    </g>
</svg>